<svg id="img-001" xmlns="http://www.w3.org/2000/svg" xmlns:xlink="http://www.w3.org/1999/xlink" width="356.732" height="64.741" viewBox="0 0 356.732 64.741">
  <defs>
    <clipPath id="clip-path">
      <rect id="Rectangle_4817" data-name="Rectangle 4817" width="35.396" height="15.384" fill="none"/>
    </clipPath>
    <clipPath id="clip-path-2">
      <rect id="Rectangle_4822" data-name="Rectangle 4822" width="7.36" height="5.884" fill="none"/>
    </clipPath>
    <clipPath id="clip-path-3">
      <rect id="Rectangle_4869" data-name="Rectangle 4869" width="0.127" height="0.294" fill="none"/>
    </clipPath>
    <clipPath id="clip-path-4">
      <rect id="Rectangle_4870" data-name="Rectangle 4870" width="0.244" height="0.346" fill="none"/>
    </clipPath>
    <clipPath id="clip-path-5">
      <rect id="Rectangle_4871" data-name="Rectangle 4871" width="0.307" height="0.458" fill="none"/>
    </clipPath>
    <clipPath id="clip-path-6">
      <rect id="Rectangle_4872" data-name="Rectangle 4872" width="0.241" height="0.463" fill="none"/>
    </clipPath>
    <clipPath id="clip-path-7">
      <rect id="Rectangle_4873" data-name="Rectangle 4873" width="0.238" height="0.461" fill="none"/>
    </clipPath>
    <clipPath id="clip-path-8">
      <rect id="Rectangle_4874" data-name="Rectangle 4874" width="0.184" height="0.405" fill="none"/>
    </clipPath>
    <clipPath id="clip-path-9">
      <rect id="Rectangle_4875" data-name="Rectangle 4875" width="0.07" height="0.18" fill="none"/>
    </clipPath>
    <clipPath id="clip-path-10">
      <rect id="Rectangle_4876" data-name="Rectangle 4876" width="0.272" height="0.581" fill="none"/>
    </clipPath>
    <clipPath id="clip-path-11">
      <rect id="Rectangle_4877" data-name="Rectangle 4877" width="0.253" height="0.511" fill="none"/>
    </clipPath>
    <clipPath id="clip-path-12">
      <rect id="Rectangle_4878" data-name="Rectangle 4878" width="0.127" height="0.183" fill="none"/>
    </clipPath>
    <clipPath id="clip-path-13">
      <rect id="Rectangle_4879" data-name="Rectangle 4879" width="0.13" height="0.296" fill="none"/>
    </clipPath>
    <clipPath id="clip-path-14">
      <rect id="Rectangle_4880" data-name="Rectangle 4880" width="0.19" height="0.63" fill="none"/>
    </clipPath>
    <clipPath id="clip-path-15">
      <rect id="Rectangle_4881" data-name="Rectangle 4881" width="0.07" height="0.124" fill="none"/>
    </clipPath>
    <clipPath id="clip-path-16">
      <rect id="Rectangle_4882" data-name="Rectangle 4882" width="1.584" height="1.66" fill="none"/>
    </clipPath>
    <clipPath id="clip-path-17">
      <rect id="Rectangle_4883" data-name="Rectangle 4883" width="1.156" height="2.644" fill="none"/>
    </clipPath>
    <clipPath id="clip-path-18">
      <rect id="Rectangle_4884" data-name="Rectangle 4884" width="1.074" height="1.49" fill="none"/>
    </clipPath>
    <clipPath id="clip-path-19">
      <rect id="Rectangle_4885" data-name="Rectangle 4885" width="0.523" height="1.201" fill="none"/>
    </clipPath>
    <clipPath id="clip-path-20">
      <rect id="Rectangle_4886" data-name="Rectangle 4886" width="0.868" height="0.963" fill="none"/>
    </clipPath>
    <clipPath id="clip-path-21">
      <rect id="Rectangle_4887" data-name="Rectangle 4887" width="2.363" height="1.604" fill="none"/>
    </clipPath>
    <clipPath id="clip-path-22">
      <rect id="Rectangle_4888" data-name="Rectangle 4888" width="4.982" height="17.925" fill="none"/>
    </clipPath>
  </defs>
  <g id="Group_10849" data-name="Group 10849" transform="translate(183.181)">
    <rect id="Rectangle_3" data-name="Rectangle 3" width="122.167" height="10.662" transform="translate(4.436 44.479)" fill="#373945"/>
    <g id="Group_4" data-name="Group 4" transform="translate(0.403 3.562)">
      <path id="Path_4" data-name="Path 4" d="M196.208,191.4a1.586,1.586,0,0,0,1.587,1.587H329.13a1.586,1.586,0,0,0,1.586-1.587V149.275a1.585,1.585,0,0,0-1.586-1.586H197.795a1.585,1.585,0,0,0-1.587,1.586Z" transform="translate(-196.208 -147.689)" fill="#dfe0e8"/>
      <g id="Group_3" data-name="Group 3" transform="translate(4.032 2.131)">
        <path id="Path_5" data-name="Path 5" d="M207.5,196.112a.528.528,0,0,0,.528.526h0a.528.528,0,0,0,.528-.526V156.131a.529.529,0,0,0-.528-.528h0a.53.53,0,0,0-.528.528Z" transform="translate(-81.121 -155.603)" fill="#e7e8f0"/>
        <path id="Path_6" data-name="Path 6" d="M223.148,196.112a.528.528,0,0,0,.527.526h0a.528.528,0,0,0,.529-.526V156.131a.529.529,0,0,0-.529-.528h0a.529.529,0,0,0-.527.528Z" transform="translate(-100.981 -155.603)" fill="#e7e8f0"/>
        <path id="Path_7" data-name="Path 7" d="M238.8,196.112a.527.527,0,0,0,.528.526h0a.528.528,0,0,0,.528-.526V156.131a.53.53,0,0,0-.528-.528h0a.529.529,0,0,0-.528.528Z" transform="translate(-120.842 -155.603)" fill="#e7e8f0"/>
        <path id="Path_8" data-name="Path 8" d="M254.441,196.112a.528.528,0,0,0,.528.526h0a.528.528,0,0,0,.529-.526V156.131a.53.53,0,0,0-.529-.528h0a.529.529,0,0,0-.528.528Z" transform="translate(-140.7 -155.603)" fill="#e7e8f0"/>
        <path id="Path_9" data-name="Path 9" d="M270.089,196.112a.528.528,0,0,0,.528.526h0a.528.528,0,0,0,.528-.526V156.131a.53.53,0,0,0-.528-.528h0a.529.529,0,0,0-.528.528Z" transform="translate(-160.56 -155.603)" fill="#e7e8f0"/>
        <path id="Path_10" data-name="Path 10" d="M285.738,196.112a.528.528,0,0,0,.528.526h0a.527.527,0,0,0,.528-.526V156.131a.529.529,0,0,0-.528-.528h0a.53.53,0,0,0-.528.528Z" transform="translate(-180.422 -155.603)" fill="#e7e8f0"/>
        <path id="Path_11" data-name="Path 11" d="M301.383,196.112a.528.528,0,0,0,.528.526h0a.528.528,0,0,0,.529-.526V156.131a.53.53,0,0,0-.529-.528h0a.53.53,0,0,0-.528.528Z" transform="translate(-200.28 -155.603)" fill="#e7e8f0"/>
        <path id="Path_12" data-name="Path 12" d="M317.034,196.112a.528.528,0,0,0,.529.526h0a.527.527,0,0,0,.527-.526V156.131a.529.529,0,0,0-.527-.528h0a.53.53,0,0,0-.529.528Z" transform="translate(-220.144 -155.603)" fill="#e7e8f0"/>
        <path id="Path_13" data-name="Path 13" d="M332.682,196.112a.529.529,0,0,0,.529.526h0a.527.527,0,0,0,.527-.526V156.131a.529.529,0,0,0-.527-.528h0a.53.53,0,0,0-.529.528Z" transform="translate(-240.004 -155.603)" fill="#e7e8f0"/>
        <path id="Path_14" data-name="Path 14" d="M348.33,196.112a.528.528,0,0,0,.529.526h0a.527.527,0,0,0,.526-.526V156.131a.528.528,0,0,0-.526-.528h0a.53.53,0,0,0-.529.528Z" transform="translate(-259.865 -155.603)" fill="#e7e8f0"/>
        <path id="Path_15" data-name="Path 15" d="M363.973,196.112a.528.528,0,0,0,.529.526h0a.528.528,0,0,0,.528-.526V156.131a.529.529,0,0,0-.528-.528h0a.53.53,0,0,0-.529.528Z" transform="translate(-279.72 -155.603)" fill="#e7e8f0"/>
        <path id="Path_16" data-name="Path 16" d="M379.626,196.112a.527.527,0,0,0,.527.526h0a.527.527,0,0,0,.527-.526V156.131a.528.528,0,0,0-.527-.528h0a.528.528,0,0,0-.527.528Z" transform="translate(-299.584 -155.603)" fill="#e7e8f0"/>
        <path id="Path_17" data-name="Path 17" d="M395.271,196.112a.527.527,0,0,0,.528.526h0a.528.528,0,0,0,.528-.526V156.131a.529.529,0,0,0-.528-.528h0a.528.528,0,0,0-.528.528Z" transform="translate(-319.444 -155.603)" fill="#e7e8f0"/>
        <path id="Path_18" data-name="Path 18" d="M410.914,196.112a.527.527,0,0,0,.526.526h0a.528.528,0,0,0,.53-.526V156.131a.53.53,0,0,0-.53-.528h0a.528.528,0,0,0-.526.528Z" transform="translate(-339.299 -155.603)" fill="#e7e8f0"/>
        <path id="Path_19" data-name="Path 19" d="M426.563,196.112a.529.529,0,0,0,.529.526h0a.529.529,0,0,0,.528-.526V156.131a.53.53,0,0,0-.528-.528h0a.53.53,0,0,0-.529.528Z" transform="translate(-359.161 -155.603)" fill="#e7e8f0"/>
        <path id="Path_20" data-name="Path 20" d="M442.208,196.112a.528.528,0,0,0,.528.526h0a.529.529,0,0,0,.529-.526V156.131a.53.53,0,0,0-.529-.528h0a.53.53,0,0,0-.528.528Z" transform="translate(-379.019 -155.603)" fill="#e7e8f0"/>
        <path id="Path_21" data-name="Path 21" d="M457.86,196.112a.527.527,0,0,0,.526.526h0a.527.527,0,0,0,.528-.526V156.131a.529.529,0,0,0-.528-.528h0a.528.528,0,0,0-.526.528Z" transform="translate(-398.882 -155.603)" fill="#e7e8f0"/>
        <path id="Path_22" data-name="Path 22" d="M473.5,196.112a.527.527,0,0,0,.527.526h0a.529.529,0,0,0,.529-.526V156.131a.53.53,0,0,0-.529-.528h0a.528.528,0,0,0-.527.528Z" transform="translate(-418.738 -155.603)" fill="#e7e8f0"/>
        <path id="Path_23" data-name="Path 23" d="M489.147,196.112a.529.529,0,0,0,.529.526h0a.529.529,0,0,0,.53-.526V156.131a.53.53,0,0,0-.53-.528h0a.53.53,0,0,0-.529.528Z" transform="translate(-438.596 -155.603)" fill="#e7e8f0"/>
        <path id="Path_24" data-name="Path 24" d="M504.8,196.112a.529.529,0,0,0,.528.526h0a.528.528,0,0,0,.528-.526V156.131a.53.53,0,0,0-.528-.528h0a.53.53,0,0,0-.528.528Z" transform="translate(-458.461 -155.603)" fill="#e7e8f0"/>
        <path id="Path_25" data-name="Path 25" d="M520.444,196.112a.529.529,0,0,0,.53.526h0a.528.528,0,0,0,.528-.526V156.131a.53.53,0,0,0-.528-.528h0a.53.53,0,0,0-.53.528Z" transform="translate(-478.319 -155.603)" fill="#e7e8f0"/>
        <path id="Path_26" data-name="Path 26" d="M536.1,196.112a.529.529,0,0,0,.529.526h0a.527.527,0,0,0,.527-.526V156.131a.528.528,0,0,0-.527-.528h0a.53.53,0,0,0-.529.528Z" transform="translate(-498.185 -155.603)" fill="#e7e8f0"/>
        <path id="Path_27" data-name="Path 27" d="M551.746,196.112a.528.528,0,0,0,.528.526h0a.527.527,0,0,0,.527-.526V156.131a.528.528,0,0,0-.527-.528h0a.529.529,0,0,0-.528.528Z" transform="translate(-518.045 -155.603)" fill="#e7e8f0"/>
        <path id="Path_28" data-name="Path 28" d="M567.391,196.112a.528.528,0,0,0,.528.526h0a.527.527,0,0,0,.528-.526V156.131a.528.528,0,0,0-.528-.528h0a.529.529,0,0,0-.528.528Z" transform="translate(-537.903 -155.603)" fill="#e7e8f0"/>
        <path id="Path_29" data-name="Path 29" d="M583.035,196.112a.528.528,0,0,0,.528.526h0a.528.528,0,0,0,.528-.526V156.131a.529.529,0,0,0-.528-.528h0a.529.529,0,0,0-.528.528Z" transform="translate(-557.759 -155.603)" fill="#e7e8f0"/>
        <path id="Path_30" data-name="Path 30" d="M598.685,196.112a.529.529,0,0,0,.531.526h0a.527.527,0,0,0,.526-.526V156.131a.528.528,0,0,0-.526-.528h0a.53.53,0,0,0-.531.528Z" transform="translate(-577.623 -155.603)" fill="#e7e8f0"/>
        <path id="Path_31" data-name="Path 31" d="M614.33,196.112a.529.529,0,0,0,.528.526h0a.528.528,0,0,0,.529-.526V156.131a.529.529,0,0,0-.529-.528h0a.53.53,0,0,0-.528.528Z" transform="translate(-597.48 -155.603)" fill="#e7e8f0"/>
        <path id="Path_32" data-name="Path 32" d="M629.981,196.112a.527.527,0,0,0,.526.526h0a.527.527,0,0,0,.528-.526V156.131a.528.528,0,0,0-.528-.528h0a.528.528,0,0,0-.526.528Z" transform="translate(-617.342 -155.603)" fill="#e7e8f0"/>
        <path id="Path_33" data-name="Path 33" d="M645.624,196.112a.527.527,0,0,0,.527.526h0a.529.529,0,0,0,.529-.526V156.131a.53.53,0,0,0-.529-.528h0a.528.528,0,0,0-.527.528Z" transform="translate(-637.198 -155.603)" fill="#e7e8f0"/>
        <path id="Path_34" data-name="Path 34" d="M661.274,196.112a.527.527,0,0,0,.527.526h0a.528.528,0,0,0,.528-.526V156.131a.529.529,0,0,0-.528-.528h0a.528.528,0,0,0-.527.528Z" transform="translate(-657.06 -155.603)" fill="#e7e8f0"/>
        <path id="Path_35" data-name="Path 35" d="M676.921,196.112a.528.528,0,0,0,.527.526h0a.529.529,0,0,0,.529-.526V156.131a.53.53,0,0,0-.529-.528h0a.529.529,0,0,0-.527.528Z" transform="translate(-676.921 -155.603)" fill="#e7e8f0"/>
      </g>
      <path id="Path_36" data-name="Path 36" d="M196.208,191.4a1.586,1.586,0,0,0,1.587,1.587H329.13a1.586,1.586,0,0,0,1.586-1.587V149.275a1.585,1.585,0,0,0-1.586-1.586Z" transform="translate(-196.208 -147.689)" fill="#f7f8fd" style="mix-blend-mode: multiply;isolation: isolate"/>
    </g>
    <rect id="Rectangle_6" data-name="Rectangle 6" width="24.898" height="13.589" transform="translate(141.408 44.479)" fill="#131629"/>
    <path id="Path_37" data-name="Path 37" d="M102.646,189.68s-5.188-8.647-28.883-8.647v8.647Z" transform="translate(65.23 -168.494)" fill="#e03830"/>
    <path id="Path_38" data-name="Path 38" d="M73.763,181.112v-.079c23.694,0,28.883,8.647,28.883,8.647H98.937S94.289,181.956,73.763,181.112Z" transform="translate(65.23 -168.494)" fill="#c71b13"/>
    <g id="Group_5" data-name="Group 5" transform="translate(138.993 20.801)">
      <path id="Path_40" data-name="Path 40" d="M85.061,211.721c.678.685,3.5,8.789,4.223,27.747H87.56a.707.707,0,0,0-.708.708v.78a.708.708,0,0,0,.708.708h1.8c.068,2.392.1,4.933.1,7.652H80.107a11.667,11.667,0,0,0,.073-1.263,11.514,11.514,0,0,0-11.514-11.514H55.714V211.721Z" transform="translate(-55.714 -211.721)" fill="#e03830"/>
      <path id="Path_41" data-name="Path 41" d="M55.714,211.721h6.226c.678.685,3.5,8.789,4.223,27.747H64.438a.707.707,0,0,0-.708.708v.78a.708.708,0,0,0,.708.708h1.8c.068,2.392.1,4.933.1,7.652H60.848c-.4-4.894-1.172-14.878-1.744-25.078A30.134,30.134,0,0,0,55.714,211.721Z" transform="translate(-32.592 -211.721)" fill="#c71b13"/>
      <path id="Path_42" data-name="Path 42" d="M65.743,233.791h26.03c.013.059.025.116.038.177H75.085v18.82c-.059-.009-.118-.02-.177-.028V233.968H65.743a.62.62,0,0,0-.619.619v18.08h-.177v-18.08A.8.8,0,0,1,65.743,233.791Z" transform="translate(-60.555 -227.849)" fill="#a63f38" opacity="0.4" style="mix-blend-mode: multiply;isolation: isolate"/>
    </g>
    <g id="Group_6" data-name="Group 6" transform="translate(160.139 48.861)">
      <path id="Path_43" data-name="Path 43" d="M60.824,317.328h9.888a.692.692,0,0,0,.692-.691h0a.692.692,0,0,0-.692-.691H59.947Z" transform="translate(-59.947 -315.946)" fill="#373945"/>
      <path id="Path_44" data-name="Path 44" d="M70.711,316.474H60.282l-.335-.528H70.711a.689.689,0,0,1,.638.955A.692.692,0,0,0,70.711,316.474Z" transform="translate(-59.947 -315.946)" fill="#8a979d" opacity="0.6"/>
    </g>
    <g id="Group_10" data-name="Group 10" transform="translate(145.301 27.333)">
      <g id="Group_7" data-name="Group 7">
        <path id="Path_45" data-name="Path 45" d="M141.052,236.868a.886.886,0,0,0-.885-.885h-4.332a.886.886,0,0,0-.885.885v7.119c0,.162,0,.542,5.9,1.47l.2.031Z" transform="translate(-134.951 -235.983)" fill="#b4b7d1"/>
        <path id="Path_47" data-name="Path 47" d="M74.872,249.713a48.208,48.208,0,0,1-1.763-13.553l-.035-.177h-14.3a.886.886,0,0,0-.885.885v9.239c0,.221,0,.5,16.947,3.78l.049.009Z" transform="translate(-48.041 -235.983)" fill="#373945"/>
        <path id="Path_48" data-name="Path 48" d="M57.95,237.349a.707.707,0,0,1,.708-.708H72.99a114.935,114.935,0,0,1,1.763,13.553c-4.473-.867-16.8-3.286-16.8-3.606Z" transform="translate(-47.922 -236.464)" fill="#b4b7d1"/>
      </g>
      <g id="Group_8" data-name="Group 8" transform="translate(10.028 8.702)">
        <path id="Path_54" data-name="Path 54" d="M108.566,269.727V268.3l3.176,2.266A16.151,16.151,0,0,1,108.566,269.727Z" transform="translate(-108.566 -268.305)" fill="#88a6b5"/>
      </g>
      <g id="Group_9" data-name="Group 9" transform="translate(0.177 0.177)">
        <path id="Path_55" data-name="Path 55" d="M136.316,236.641h.385a.686.686,0,0,0-.089.324v7.119c0,.288,3.1.85,4.743,1.13v.549s-5.747-.9-5.747-1.295v-7.119A.708.708,0,0,1,136.316,236.641Z" transform="translate(-135.608 -236.641)" fill="#373945"/>
        <path id="Path_56" data-name="Path 56" d="M58.658,236.641h.295v9.025c0,.2,4.7,1.2,9.347,2.134l-3.279-11.159h3.094l3.536,11.828c1.108.219,2.137.421,3.006.59.032.377.066.745.1,1.135-4.473-.867-16.8-3.286-16.8-3.606v-9.239A.707.707,0,0,1,58.658,236.641Z" transform="translate(-48.099 -236.641)" fill="#373945"/>
      </g>
    </g>
    <g id="Group_12" data-name="Group 12" transform="translate(130.529)">
      <g id="Group_11" data-name="Group 11" transform="translate(0)">
        <path id="Path_57" data-name="Path 57" d="M193.282,165.388a.53.53,0,0,0,.53-.53V136.4a1.944,1.944,0,0,0-1.941-1.941h-4.41a.529.529,0,1,0,0,1.059h4.41a.883.883,0,0,1,.882.883v28.459A.529.529,0,0,0,193.282,165.388Z" transform="translate(-186.931 -134.458)" fill="#7c828a"/>
      </g>
      <path id="Rectangle_7" data-name="Rectangle 7" d="M2.41,0h0A2.411,2.411,0,0,1,4.821,2.411v20.33A2.411,2.411,0,0,1,2.41,25.152h0A2.409,2.409,0,0,1,0,22.743V2.41A2.41,2.41,0,0,1,2.41,0Z" transform="translate(3.94 23.351)" fill="#131629"/>
      <path id="Path_58" data-name="Path 58" d="M182.884,242.292v-21.1h.47a1.411,1.411,0,0,1,1.412,1.411V244.93a1.411,1.411,0,0,1-1.412,1.412h-2a1.411,1.411,0,0,1-1.412-1.412V243.7h1.529A1.411,1.411,0,0,0,182.884,242.292Z" transform="translate(-176.004 -197.84)" fill="#0b0d19" opacity="0.5"/>
    </g>
    <g id="Group_13" data-name="Group 13" transform="translate(87.199 49.871)">
      <path id="Rectangle_8" data-name="Rectangle 8" d="M2.893,0h46.64a2.893,2.893,0,0,1,2.893,2.893v0a2.892,2.892,0,0,1-2.892,2.892H2.893A2.893,2.893,0,0,1,0,2.893v0A2.893,2.893,0,0,1,2.893,0Z" transform="translate(0 0)" fill="#050a2f"/>
      <path id="Path_59" data-name="Path 59" d="M180.17,319.7h49.487a1.469,1.469,0,0,1,1.469,1.468v1.251H178.7v-1.251A1.469,1.469,0,0,1,180.17,319.7Z" transform="translate(-178.701 -319.699)" fill="#788b99"/>
    </g>
    <g id="Group_14" data-name="Group 14" transform="translate(0 45.357)">
      <path id="Path_6192" data-name="Path 6192" d="M139.8,0H2.257A2.257,2.257,0,0,0,0,2.257H0A2.256,2.256,0,0,0,2.256,4.514H139.8A2.257,2.257,0,0,0,139.8,0Z" transform="translate(0 0)" fill="#0b2239"/>
      <path id="Path_60" data-name="Path 60" d="M309.144,303.719v-.787h1.1a1.468,1.468,0,0,1,1.469,1.47v1.574a1.468,1.468,0,0,1-1.469,1.47H171.126a1.468,1.468,0,0,1-1.469-1.47v-.788H307.675A1.468,1.468,0,0,0,309.144,303.719Z" transform="translate(-169.657 -302.932)" fill="#333340"/>
    </g>
    <path id="Path_64" data-name="Path 64" d="M284.193,322.881a8.1,8.1,0,1,0,8.1-8.1A8.1,8.1,0,0,0,284.193,322.881Z" transform="translate(-189.162 -266.237)" fill="#0b2239"/>
    <ellipse id="Ellipse_1" data-name="Ellipse 1" cx="5.284" cy="5.284" rx="5.284" ry="5.284" transform="translate(108.339 61.999) rotate(-179.226)" fill="#a9b6bc"/>
    <g id="Group_16" data-name="Group 16" transform="translate(99.457 52.972)">
      <path id="Path_65" data-name="Path 65" d="M304.3,338.56a3.671,3.671,0,1,0-3.671-3.671A3.675,3.675,0,0,0,304.3,338.56Zm0-6.989a3.318,3.318,0,1,1-3.317,3.318A3.322,3.322,0,0,1,304.3,331.571Z" transform="translate(-300.63 -331.217)" fill="#c0cfd4"/>
    </g>
    <g id="Group_19" data-name="Group 19" transform="translate(47.901 48.548)">
      <path id="Path_69" data-name="Path 69" d="M459.25,322.881a8.1,8.1,0,1,0,8.1-8.1A8.1,8.1,0,0,0,459.25,322.881Z" transform="translate(-459.25 -314.785)" fill="#0b2239"/>
      <path id="Path_70" data-name="Path 70" d="M469.7,330.515a5.284,5.284,0,1,0,5.284-5.284A5.285,5.285,0,0,0,469.7,330.515Z" transform="translate(-466.885 -322.419)" fill="#a9b6bc"/>
      <g id="Group_18" data-name="Group 18" transform="translate(4.425 4.424)">
        <path id="Path_71" data-name="Path 71" d="M479.36,338.56a3.671,3.671,0,1,0-3.672-3.671A3.675,3.675,0,0,0,479.36,338.56Zm0-6.989a3.318,3.318,0,1,1-3.318,3.318A3.321,3.321,0,0,1,479.36,331.571Z" transform="translate(-475.688 -331.217)" fill="#c0cfd4"/>
      </g>
    </g>
    <g id="Group_21" data-name="Group 21" transform="translate(25.669 48.548)">
      <path id="Path_75" data-name="Path 75" d="M541.83,322.881a8.1,8.1,0,1,0,8.1-8.1A8.1,8.1,0,0,0,541.83,322.881Z" transform="translate(-541.83 -314.785)" fill="#0b2239"/>
      <path id="Path_76" data-name="Path 76" d="M552.278,330.515a5.284,5.284,0,1,0,5.284-5.284A5.285,5.285,0,0,0,552.278,330.515Z" transform="translate(-549.466 -322.419)" fill="#a9b6bc"/>
      <g id="Group_20" data-name="Group 20" transform="translate(4.425 4.424)">
        <path id="Path_77" data-name="Path 77" d="M561.939,338.56a3.671,3.671,0,1,0-3.671-3.671A3.675,3.675,0,0,0,561.939,338.56Zm0-6.989a3.318,3.318,0,1,1-3.317,3.318A3.322,3.322,0,0,1,561.939,331.571Z" transform="translate(-558.268 -331.217)" fill="#c0cfd4"/>
      </g>
    </g>
    <g id="Group_23" data-name="Group 23" transform="translate(3.347 48.548)">
      <path id="Path_81" data-name="Path 81" d="M624.739,322.881a8.1,8.1,0,1,0,8.1-8.1A8.1,8.1,0,0,0,624.739,322.881Z" transform="translate(-624.739 -314.785)" fill="#0b2239"/>
      <path id="Path_82" data-name="Path 82" d="M635.187,330.515a5.284,5.284,0,1,0,5.284-5.284A5.285,5.285,0,0,0,635.187,330.515Z" transform="translate(-632.375 -322.419)" fill="#a9b6bc"/>
      <g id="Group_22" data-name="Group 22" transform="translate(4.425 4.424)">
        <path id="Path_83" data-name="Path 83" d="M644.849,338.56a3.671,3.671,0,1,0-3.671-3.671A3.675,3.675,0,0,0,644.849,338.56Zm0-6.989a3.318,3.318,0,1,1-3.318,3.318A3.321,3.321,0,0,1,644.849,331.571Z" transform="translate(-641.178 -331.217)" fill="#c0cfd4"/>
      </g>
    </g>
    <g id="Group_25" data-name="Group 25" transform="translate(138.286 44.911)">
      <g id="Group_24" data-name="Group 24" transform="translate(0)">
        <path id="Path_87" data-name="Path 87" d="M112.715,314.2a.708.708,0,0,0,.708-.708A12.235,12.235,0,0,0,101.2,301.274H88.249a.708.708,0,0,0,0,1.416H101.2A10.818,10.818,0,0,1,112.007,313.5.708.708,0,0,0,112.715,314.2Z" transform="translate(-87.541 -301.274)" fill="#3e4750"/>
      </g>
      <path id="Path_88" data-name="Path 88" d="M115.343,315.416c0,.236-.01.47-.025.7a.7.7,0,0,1-.683-.7,10.818,10.818,0,0,0-10.806-10.806H90.877a.708.708,0,0,1-.708-.708h13.66A11.514,11.514,0,0,1,115.343,315.416Z" transform="translate(-90.169 -303.194)" fill="#0b0d19" opacity="0.5"/>
    </g>
    <g id="Group_27" data-name="Group 27" transform="translate(144.134 48.548)">
      <path id="Path_89" data-name="Path 89" d="M101.807,322.881a8.1,8.1,0,1,0,8.1-8.1A8.1,8.1,0,0,0,101.807,322.881Z" transform="translate(-101.807 -314.785)" fill="#0b2239"/>
      <ellipse id="Ellipse_2" data-name="Ellipse 2" cx="5.284" cy="5.284" rx="5.284" ry="5.284" transform="matrix(-1, -0.009, 0.009, -1, 13.333, 13.426)" fill="#a9b6bc"/>
      <g id="Group_26" data-name="Group 26" transform="translate(4.425 4.424)">
        <path id="Path_90" data-name="Path 90" d="M121.914,338.56a3.671,3.671,0,1,0-3.671-3.671A3.675,3.675,0,0,0,121.914,338.56Zm0-6.989a3.318,3.318,0,1,1-3.317,3.318A3.322,3.322,0,0,1,121.914,331.571Z" transform="translate(-118.243 -331.217)" fill="#c0cfd4"/>
      </g>
    </g>
    <g id="Group_28" data-name="Group 28" transform="translate(122.138 48.055)">
      <path id="Path_93" data-name="Path 93" d="M167.025,320.445a1.577,1.577,0,0,0,1.578,1.577h17.473a1.576,1.576,0,0,0,1.578-1.577v-5.917a1.577,1.577,0,0,0-1.578-1.577H168.6a1.577,1.577,0,0,0-1.578,1.577Z" transform="translate(-167.025 -312.951)" fill="#cbd0d4"/>
      <path id="Path_94" data-name="Path 94" d="M168.6,312.951h17.473a1.577,1.577,0,0,1,1.578,1.577v.846H172a1.576,1.576,0,0,0-1.577,1.577v5.07H168.6a1.577,1.577,0,0,1-1.578-1.577v-5.917A1.577,1.577,0,0,1,168.6,312.951Z" transform="translate(-167.025 -312.951)" fill="#e3e7ea" style="mix-blend-mode: multiply;isolation: isolate"/>
    </g>
    <g id="Group_29" data-name="Group 29" transform="translate(163.278 57.421)">
      <rect id="Rectangle_10" data-name="Rectangle 10" width="9.858" height="1.444" rx="0.722" fill="#cbd0d4"/>
      <path id="Path_95" data-name="Path 95" d="M63.5,351.832H55.06a.7.7,0,0,1-.66-.469h9.763A.7.7,0,0,1,63.5,351.832Z" transform="translate(-54.352 -350.388)" fill="#e3e7ea" style="mix-blend-mode: multiply;isolation: isolate"/>
    </g>
    <g id="Group_30" data-name="Group 30" transform="translate(169.316 48.039)">
      <rect id="Rectangle_11" data-name="Rectangle 11" width="4.235" height="2.956" rx="1.478" transform="translate(0)" fill="#fc955b"/>
      <path id="Path_96" data-name="Path 96" d="M53.48,312.895h.169a.7.7,0,0,0-.024.117v1.539a.708.708,0,0,0,.708.708h2.651a.7.7,0,0,1-.684.591H53.48a.707.707,0,0,1-.708-.708V313.6A.708.708,0,0,1,53.48,312.895Z" transform="translate(-52.772 -312.895)" fill="#fc955b" opacity="0.4" style="mix-blend-mode: multiply;isolation: isolate"/>
    </g>
  </g>
  <g id="Group_10916" data-name="Group 10916" transform="translate(0 11.857)">
    <rect id="Rectangle_4798" data-name="Rectangle 4798" width="24.717" height="20.082" transform="translate(67.234 27.413)" fill="#faa36b"/>
    <rect id="Rectangle_4799" data-name="Rectangle 4799" width="24.717" height="20.082" transform="translate(77.023 27.413)" fill="#ffca87"/>
    <rect id="Rectangle_4800" data-name="Rectangle 4800" width="2.279" height="1.521" transform="translate(74.746 30.455)" fill="#f9924f"/>
    <rect id="Rectangle_4801" data-name="Rectangle 4801" width="2.279" height="1.521" transform="translate(77.023 30.455)" fill="#ffb060"/>
    <rect id="Rectangle_4802" data-name="Rectangle 4802" width="2.279" height="1.521" transform="translate(74.746 42.75)" fill="#f9924f"/>
    <rect id="Rectangle_4803" data-name="Rectangle 4803" width="2.279" height="1.521" transform="translate(77.023 42.75)" fill="#ffb060"/>
    <rect id="Rectangle_4804" data-name="Rectangle 4804" width="2.279" height="1.521" transform="translate(99.461 42.75)" fill="#ffb060"/>
    <rect id="Rectangle_4805" data-name="Rectangle 4805" width="2.279" height="1.521" transform="translate(99.461 30.455)" fill="#ffb060"/>
    <rect id="Rectangle_4806" data-name="Rectangle 4806" width="5.514" height="2.757" transform="translate(80.871 40.066) rotate(-13.162)" fill="#fff"/>
    <rect id="Rectangle_4807" data-name="Rectangle 4807" width="16.454" height="13.368" transform="translate(68.77 14.045)" fill="#f39558"/>
    <rect id="Rectangle_4808" data-name="Rectangle 4808" width="16.454" height="13.368" transform="translate(75.287 14.045)" fill="#ffca87"/>
    <rect id="Rectangle_4809" data-name="Rectangle 4809" width="1.517" height="1.013" transform="translate(73.77 16.07)" fill="#f9924f"/>
    <rect id="Rectangle_4810" data-name="Rectangle 4810" width="1.517" height="1.013" transform="translate(75.287 16.07)" fill="#ffb060"/>
    <rect id="Rectangle_4811" data-name="Rectangle 4811" width="1.517" height="1.013" transform="translate(73.77 24.255)" fill="#f9924f"/>
    <rect id="Rectangle_4812" data-name="Rectangle 4812" width="1.517" height="1.013" transform="translate(75.287 24.255)" fill="#ffb060"/>
    <rect id="Rectangle_4813" data-name="Rectangle 4813" width="1.517" height="1.013" transform="translate(90.223 24.255)" fill="#ffb060"/>
    <rect id="Rectangle_4814" data-name="Rectangle 4814" width="1.517" height="1.013" transform="translate(90.223 16.07)" fill="#ffb060"/>
    <rect id="Rectangle_4815" data-name="Rectangle 4815" width="3.671" height="1.835" transform="translate(77.85 22.468) rotate(-13.163)" fill="#fff"/>
    <rect id="Rectangle_4816" data-name="Rectangle 4816" width="53.791" height="11.276" transform="translate(4.689 34.444)" fill="#454375"/>
    <path id="Path_6411" data-name="Path 6411" d="M0,90.292V94.84a5.262,5.262,0,0,0,.116,1.11,5.557,5.557,0,0,0,1.008,2.269,5.663,5.663,0,0,0,2.929,2.027,1.357,1.357,0,0,0,1.731-1.1,11.713,11.713,0,0,1,1.692-4.732L7.5,94.4c1.314-1.993,3.573-3.69,7.457-3.724,3.913-.034,5.891,1.959,6.856,4.3a13.83,13.83,0,0,1,.882,5.455,1.847,1.847,0,0,0,1.857,1.881H41.583a2.351,2.351,0,0,0,2.357-2.167c.839-11.933,10.12-12.306,12.641-12.185H56.6a.6.6,0,0,0,.6-.606.415.415,0,0,0-.4-.412c-8.088-.3-11.506,4.47-12.713,6.871a2.4,2.4,0,0,1-2.138,1.338H36.943a2.031,2.031,0,0,1-2.032-2.032V91.184l-2.793-1.552-12.4-6.875V78.068H4a2.869,2.869,0,0,0-2.866,2.87v1.493a1.705,1.705,0,0,0,1.7,1.7.246.246,0,0,1,.242.242v2.846a1.523,1.523,0,0,1-1.517,1.518A1.558,1.558,0,0,0,0,90.292" transform="translate(0 -53.341)" fill="#ffca87"/>
    <path id="Path_6412" data-name="Path 6412" d="M36.354,131.565a6.618,6.618,0,1,0-6.618,6.618,6.618,6.618,0,0,0,6.618-6.618" transform="translate(-15.797 -85.371)" fill="#28264b"/>
    <path id="Path_6413" data-name="Path 6413" d="M38.062,134.748a5.142,5.142,0,1,0-5.142,5.142,5.142,5.142,0,0,0,5.142-5.142" transform="translate(-18.979 -88.555)" fill="#201e3f"/>
    <path id="Path_6414" data-name="Path 6414" d="M40.266,138.856a3.237,3.237,0,1,0-3.237,3.237,3.237,3.237,0,0,0,3.237-3.237" transform="translate(-23.088 -92.663)" fill="#454375"/>
    <path id="Path_6415" data-name="Path 6415" d="M42.387,142.81a1.4,1.4,0,1,0-1.4,1.4,1.4,1.4,0,0,0,1.4-1.4" transform="translate(-27.043 -96.617)" fill="#8d9bc7"/>
    <path id="Path_6416" data-name="Path 6416" d="M43.6,138.682a.357.357,0,1,0-.357.357.357.357,0,0,0,.357-.357" transform="translate(-29.301 -94.512)" fill="#8d9bc7"/>
    <path id="Path_6417" data-name="Path 6417" d="M43.6,151.358a.357.357,0,1,0-.357.357.357.357,0,0,0,.357-.357" transform="translate(-29.301 -103.173)" fill="#8d9bc7"/>
    <path id="Path_6418" data-name="Path 6418" d="M49.16,142.164a.357.357,0,1,0-.357.357.357.357,0,0,0,.357-.357" transform="translate(-33.102 -96.891)" fill="#8d9bc7"/>
    <path id="Path_6419" data-name="Path 6419" d="M38.036,142.164a.357.357,0,1,0-.357.357.357.357,0,0,0,.357-.357" transform="translate(-25.5 -96.891)" fill="#8d9bc7"/>
    <path id="Path_6420" data-name="Path 6420" d="M49.16,148.377a.357.357,0,1,0-.357.357.357.357,0,0,0,.357-.357" transform="translate(-33.102 -101.136)" fill="#8d9bc7"/>
    <path id="Path_6421" data-name="Path 6421" d="M38.036,148.377a.357.357,0,1,0-.357.357.357.357,0,0,0,.357-.357" transform="translate(-25.5 -101.136)" fill="#8d9bc7"/>
    <g id="Group_10852" data-name="Group 10852" transform="translate(21.809 33.587)" opacity="0.5">
      <g id="Group_10851" data-name="Group 10851">
        <g id="Group_10850" data-name="Group 10850" clip-path="url(#clip-path)">
          <path id="Path_6422" data-name="Path 6422" d="M69.739,119.543a1.847,1.847,0,0,0,1.857,1.881H88.63a2.352,2.352,0,0,0,2.357-2.167c.839-11.933,10.12-12.306,12.641-12.185h.024a.6.6,0,0,0,.6-.606.416.416,0,0,0-.4-.412c-8.088-.3-11.506,4.471-12.713,6.871A2.4,2.4,0,0,1,89,114.263H83.99a2.031,2.031,0,0,1-2.032-2.032V110.3l-2.793-1.552a79.249,79.249,0,0,1-10.308,5.343,13.831,13.831,0,0,1,.882,5.455" transform="translate(-68.857 -106.041)" fill="#ffa550"/>
        </g>
      </g>
    </g>
    <path id="Path_6423" data-name="Path 6423" d="M59.3,97.516h-.007a.06.06,0,0,1-.054-.067L60.377,86.8a.057.057,0,0,1,.067-.054.06.06,0,0,1,.054.066L59.359,97.461a.06.06,0,0,1-.06.054" transform="translate(-40.475 -59.271)" fill="#f9985a"/>
    <path id="Path_6424" data-name="Path 6424" d="M92.805,142.864H71.341a.06.06,0,1,1,0-.121H92.805a.06.06,0,1,1,0,.121" transform="translate(-48.703 -97.531)" fill="#f9985a"/>
    <path id="Path_6425" data-name="Path 6425" d="M110.094,135.387a.061.061,0,0,1-.061-.06v-3.455a.061.061,0,0,1,.122,0v3.455a.061.061,0,0,1-.061.06" transform="translate(-75.182 -90.061)" fill="#f9985a"/>
    <path id="Path_6426" data-name="Path 6426" d="M128.506,64.486h-.169a3.069,3.069,0,0,1-2.258-.99l-4.5-4.887a1.293,1.293,0,0,0-1.514-.289l-1.428.69a1.342,1.342,0,0,0-.7,1.607l1.482,4.76a6.547,6.547,0,0,1,.3,1.945v8.4h3.443l7.208-2.848.561-2.122Z" transform="translate(-80.541 -39.76)" fill="#28264b"/>
    <rect id="Rectangle_4818" data-name="Rectangle 4818" width="3.455" height="38.077" transform="translate(56.752 1.657)" fill="#201e3f"/>
    <path id="Path_6427" data-name="Path 6427" d="M162.347,121.962a8.425,8.425,0,1,0-8.425,8.425,8.425,8.425,0,0,0,8.425-8.425" transform="translate(-99.412 -77.575)" fill="#28264b"/>
    <path id="Path_6428" data-name="Path 6428" d="M164.521,126.015a6.546,6.546,0,1,0-6.546,6.546,6.546,6.546,0,0,0,6.546-6.546" transform="translate(-103.465 -81.628)" fill="#201e3f"/>
    <path id="Path_6429" data-name="Path 6429" d="M167.327,131.244a4.121,4.121,0,1,0-4.121,4.121,4.122,4.122,0,0,0,4.121-4.121" transform="translate(-108.697 -86.858)" fill="#454375"/>
    <path id="Path_6430" data-name="Path 6430" d="M170.027,136.278a1.788,1.788,0,1,0-1.788,1.788,1.788,1.788,0,0,0,1.788-1.788" transform="translate(-113.73 -91.892)" fill="#8d9bc7"/>
    <path id="Path_6431" data-name="Path 6431" d="M171.57,131.023a.455.455,0,1,0-.455.455.455.455,0,0,0,.455-.455" transform="translate(-116.605 -89.212)" fill="#8d9bc7"/>
    <path id="Path_6432" data-name="Path 6432" d="M171.57,147.16a.455.455,0,1,0-.455.455.455.455,0,0,0,.455-.455" transform="translate(-116.605 -100.238)" fill="#8d9bc7"/>
    <path id="Path_6433" data-name="Path 6433" d="M178.65,135.456a.455.455,0,1,0-.454.455.455.455,0,0,0,.454-.455" transform="translate(-121.443 -92.241)" fill="#8d9bc7"/>
    <path id="Path_6434" data-name="Path 6434" d="M164.49,135.456a.455.455,0,1,0-.455.455.455.455,0,0,0,.455-.455" transform="translate(-111.768 -92.241)" fill="#8d9bc7"/>
    <path id="Path_6435" data-name="Path 6435" d="M178.65,143.365a.455.455,0,1,0-.454.455.455.455,0,0,0,.454-.455" transform="translate(-121.443 -97.645)" fill="#8d9bc7"/>
    <path id="Path_6436" data-name="Path 6436" d="M164.49,143.365a.455.455,0,1,0-.455.455.455.455,0,0,0,.455-.455" transform="translate(-111.768 -97.645)" fill="#8d9bc7"/>
    <path id="Path_6437" data-name="Path 6437" d="M192.762,148.737h26.426v-.465l-26.426-1.107Z" transform="translate(-131.707 -100.552)" fill="#201e3f"/>
    <rect id="Rectangle_4819" data-name="Rectangle 4819" width="1.131" height="29.3" transform="translate(64.006 17.94)" fill="#201e3f"/>
    <rect id="Rectangle_4820" data-name="Rectangle 4820" width="5.172" height="0.716" transform="translate(59.398 19.395)" fill="#201e3f"/>
    <rect id="Rectangle_4821" data-name="Rectangle 4821" width="5.172" height="2.319" transform="translate(59.398 34.444)" fill="#201e3f"/>
    <path id="Path_6438" data-name="Path 6438" d="M76.426,0H63.188a.929.929,0,0,0-.929.929V28.746a1.138,1.138,0,0,0,.586,1l13.661,7.575a1.837,1.837,0,0,1,.946,1.606v1.213a1.676,1.676,0,0,0,1.675,1.676H84.82a2.068,2.068,0,0,0,1.847-1.135c.259-.513.477-1.1.648-1.385,1.688-2.828,4.791-4.448,6.78-5.368a1.431,1.431,0,0,0,.764-1.741l-7.993-24.6A10.978,10.978,0,0,0,76.426,0M64.683,26.975V2.746a1.089,1.089,0,0,1,1.089-1.089H75.929a8.939,8.939,0,0,1,8.433,5.971l7.867,22.349a2.414,2.414,0,0,1-1.172,2.948l-5.462,2.812a2.03,2.03,0,0,1-.928.225H79.044a2.386,2.386,0,0,1-1.231-.342L65.325,28.109a1.323,1.323,0,0,1-.641-1.134" transform="translate(-42.539)" fill="#201e3f"/>
    <path id="Path_6439" data-name="Path 6439" d="M84.408,94.484V99.2L70.869,90.958H80.882a3.526,3.526,0,0,1,3.526,3.526" transform="translate(-48.422 -62.148)" fill="#28264b"/>
    <path id="Path_6440" data-name="Path 6440" d="M74.268,84.55H83.3a1.485,1.485,0,0,0,0-2.97H74.268a1.485,1.485,0,0,0,0,2.97" transform="translate(-49.73 -55.74)" fill="#201e3f"/>
    <path id="Path_6441" data-name="Path 6441" d="M71.173,68.569H72.1a2.188,2.188,0,0,0,2.182-2.182V60.372a2.182,2.182,0,1,0-4.364,0v6.937a1.264,1.264,0,0,0,1.26,1.26" transform="translate(-47.77 -39.759)" fill="#201e3f"/>
    <path id="Path_6442" data-name="Path 6442" d="M108.194,52.83l6.194-3.576a.576.576,0,0,0-.576-1l-6.194,3.576a.576.576,0,0,0,.576,1" transform="translate(-73.334 -32.919)" fill="#201e3f"/>
    <path id="Path_6443" data-name="Path 6443" d="M26.017,97.9H9.569a.06.06,0,1,1,0-.121H26.017a.06.06,0,1,1,0,.121" transform="translate(-6.498 -66.807)" fill="#f9985a"/>
    <g id="Group_10855" data-name="Group 10855" transform="translate(0.117 41.077)" opacity="0.5">
      <g id="Group_10854" data-name="Group 10854">
        <g id="Group_10853" data-name="Group 10853" clip-path="url(#clip-path-2)">
          <path id="Path_6444" data-name="Path 6444" d="M.367,131.22a5.557,5.557,0,0,0,1.008,2.269A5.658,5.658,0,0,0,4.3,135.516a1.357,1.357,0,0,0,1.731-1.1,11.711,11.711,0,0,1,1.692-4.732,7.4,7.4,0,0,1-4.4,2.158,4.757,4.757,0,0,1-2.958-.626" transform="translate(-0.367 -129.688)" fill="#ffa550"/>
        </g>
      </g>
    </g>
    <path id="Path_6445" data-name="Path 6445" d="M17.612,94.957s1.425-12.629,1.782-12.695-.512,5.8-.573,7.14-.92,6.177-1.209,5.554" transform="translate(-12.033 -56.207)" fill="#ffdebd"/>
    <path id="Path_6446" data-name="Path 6446" d="M33.407,69.617H34.9a.531.531,0,0,0,.576-.531l-.288-2.937a.549.549,0,0,0-.576-.45h-.9a.55.55,0,0,0-.576.448l-.3,2.936a.53.53,0,0,0,.576.533" transform="translate(-22.43 -44.89)" fill="#ff6576"/>
    <path id="Path_6447" data-name="Path 6447" d="M31.4,75.282h3.515l-.129-.732a.677.677,0,0,0-.667-.559H32.1a.522.522,0,0,0-.511.413Z" transform="translate(-21.457 -50.555)" fill="#28264b"/>
    <rect id="Rectangle_4823" data-name="Rectangle 4823" width="10.284" height="8.355" transform="translate(148.061 11.308)" fill="#faa36b"/>
    <rect id="Rectangle_4824" data-name="Rectangle 4824" width="10.284" height="8.355" transform="translate(152.131 11.308)" fill="#ffca87"/>
    <rect id="Rectangle_4825" data-name="Rectangle 4825" width="0.948" height="0.633" transform="translate(151.184 12.573)" fill="#f9924f"/>
    <rect id="Rectangle_4826" data-name="Rectangle 4826" width="0.948" height="0.633" transform="translate(152.131 12.573)" fill="#ffb060"/>
    <rect id="Rectangle_4827" data-name="Rectangle 4827" width="0.948" height="0.633" transform="translate(151.184 17.689)" fill="#f9924f"/>
    <rect id="Rectangle_4828" data-name="Rectangle 4828" width="0.948" height="0.633" transform="translate(152.131 17.689)" fill="#ffb060"/>
    <rect id="Rectangle_4829" data-name="Rectangle 4829" width="0.948" height="0.633" transform="translate(161.469 17.689)" fill="#ffb060"/>
    <rect id="Rectangle_4830" data-name="Rectangle 4830" width="0.948" height="0.633" transform="translate(161.469 12.573)" fill="#ffb060"/>
    <rect id="Rectangle_4831" data-name="Rectangle 4831" width="2.294" height="1.147" transform="translate(153.732 16.572) rotate(-13.159)" fill="#fff"/>
    <rect id="Rectangle_4832" data-name="Rectangle 4832" width="12.686" height="10.307" transform="translate(145.875 19.663)" fill="#faa36b"/>
    <rect id="Rectangle_4833" data-name="Rectangle 4833" width="12.686" height="10.307" transform="translate(150.898 19.663)" fill="#ffc27a"/>
    <rect id="Rectangle_4834" data-name="Rectangle 4834" width="1.17" height="0.781" transform="translate(149.73 21.224)" fill="#f9924f"/>
    <rect id="Rectangle_4835" data-name="Rectangle 4835" width="1.17" height="0.781" transform="translate(150.898 21.224)" fill="#ffb060"/>
    <rect id="Rectangle_4836" data-name="Rectangle 4836" width="1.17" height="0.781" transform="translate(149.73 27.535)" fill="#f9924f"/>
    <rect id="Rectangle_4837" data-name="Rectangle 4837" width="1.17" height="0.781" transform="translate(150.898 27.535)" fill="#ffb060"/>
    <rect id="Rectangle_4838" data-name="Rectangle 4838" width="1.17" height="0.781" transform="translate(162.414 27.535)" fill="#ffb060"/>
    <rect id="Rectangle_4839" data-name="Rectangle 4839" width="1.17" height="0.781" transform="translate(162.414 21.224)" fill="#ffb060"/>
    <rect id="Rectangle_4840" data-name="Rectangle 4840" width="2.83" height="1.415" transform="translate(152.875 26.157) rotate(-13.165)" fill="#fff"/>
    <path id="Path_6448" data-name="Path 6448" d="M1270.534,71.928a2.432,2.432,0,0,0-1.36-.041c-.411.147-1.54.038-1.612.142-.276.4.947.455.9.722a11.621,11.621,0,0,1-1.684,1.319c-.188.144,4.11.18,4.315-.28s-.564-1.863-.564-1.863" transform="translate(-1063.332 -49.059)" fill="#fabba5"/>
    <path id="Path_6449" data-name="Path 6449" d="M1277.977,52.166s5.3-3.577,7.369-7.423c.037-.068,1.645-5.3.667-5.052a3.16,3.16,0,0,0-2.875,1.746,37.36,37.36,0,0,1-7.051,8.419c.3,2.244,1.891,2.31,1.891,2.31" transform="translate(-1069.693 -27.113)" fill="#ff6576"/>
    <rect id="Rectangle_4841" data-name="Rectangle 4841" width="18.973" height="15.415" transform="translate(160.785 34.775)" fill="#faa36b"/>
    <rect id="Rectangle_4842" data-name="Rectangle 4842" width="18.973" height="15.415" transform="translate(168.301 34.775)" fill="#ffca87"/>
    <rect id="Rectangle_4843" data-name="Rectangle 4843" width="1.749" height="1.168" transform="translate(166.553 37.111)" fill="#f9924f"/>
    <rect id="Rectangle_4844" data-name="Rectangle 4844" width="1.749" height="1.168" transform="translate(168.301 37.111)" fill="#ffb060"/>
    <rect id="Rectangle_4845" data-name="Rectangle 4845" width="1.749" height="1.168" transform="translate(166.553 46.549)" fill="#f9924f"/>
    <rect id="Rectangle_4846" data-name="Rectangle 4846" width="1.749" height="1.168" transform="translate(168.301 46.549)" fill="#ffb060"/>
    <rect id="Rectangle_4847" data-name="Rectangle 4847" width="1.749" height="1.168" transform="translate(185.523 46.549)" fill="#ffb060"/>
    <rect id="Rectangle_4848" data-name="Rectangle 4848" width="1.749" height="1.168" transform="translate(185.523 37.111)" fill="#ffb060"/>
    <rect id="Rectangle_4849" data-name="Rectangle 4849" width="4.233" height="2.116" transform="translate(171.254 44.488) rotate(-13.163)" fill="#fff"/>
    <rect id="Rectangle_4850" data-name="Rectangle 4850" width="12.144" height="9.867" transform="translate(167.732 24.909)" fill="#faa36b"/>
    <rect id="Rectangle_4851" data-name="Rectangle 4851" width="12.144" height="9.867" transform="translate(172.541 24.909)" fill="#ffc27a"/>
    <rect id="Rectangle_4852" data-name="Rectangle 4852" width="1.12" height="0.748" transform="translate(171.42 26.403)" fill="#f9924f"/>
    <rect id="Rectangle_4853" data-name="Rectangle 4853" width="1.12" height="0.748" transform="translate(172.541 26.403)" fill="#ffb060"/>
    <rect id="Rectangle_4854" data-name="Rectangle 4854" width="1.12" height="0.748" transform="translate(171.42 32.445)" fill="#f9924f"/>
    <rect id="Rectangle_4855" data-name="Rectangle 4855" width="1.12" height="0.748" transform="translate(172.541 32.445)" fill="#ffb060"/>
    <rect id="Rectangle_4856" data-name="Rectangle 4856" width="1.12" height="0.748" transform="translate(183.564 32.445)" fill="#ffb060"/>
    <rect id="Rectangle_4857" data-name="Rectangle 4857" width="1.12" height="0.748" transform="translate(183.564 26.403)" fill="#ffb060"/>
    <rect id="Rectangle_4858" data-name="Rectangle 4858" width="2.709" height="1.355" transform="translate(174.432 31.126) rotate(-13.164)" fill="#fff"/>
    <rect id="Rectangle_4859" data-name="Rectangle 4859" width="9.6" height="7.799" transform="translate(169.203 17.109)" fill="#faa36b"/>
    <rect id="Rectangle_4860" data-name="Rectangle 4860" width="9.6" height="7.799" transform="translate(173.008 17.109)" fill="#ffca87"/>
    <rect id="Rectangle_4861" data-name="Rectangle 4861" width="0.885" height="0.591" transform="translate(172.121 18.291)" fill="#f9924f"/>
    <rect id="Rectangle_4862" data-name="Rectangle 4862" width="0.885" height="0.591" transform="translate(173.008 18.291)" fill="#ffb060"/>
    <rect id="Rectangle_4863" data-name="Rectangle 4863" width="0.885" height="0.591" transform="translate(172.121 23.066)" fill="#f9924f"/>
    <rect id="Rectangle_4864" data-name="Rectangle 4864" width="0.885" height="0.591" transform="translate(173.008 23.066)" fill="#ffb060"/>
    <rect id="Rectangle_4865" data-name="Rectangle 4865" width="0.885" height="0.591" transform="translate(181.723 23.066)" fill="#ffb060"/>
    <rect id="Rectangle_4866" data-name="Rectangle 4866" width="0.885" height="0.591" transform="translate(181.723 18.291)" fill="#ffb060"/>
    <rect id="Rectangle_4867" data-name="Rectangle 4867" width="2.142" height="1.071" transform="matrix(0.974, -0.228, 0.228, 0.974, 174.5, 22.024)" fill="#fff"/>
    <path id="Path_6450" data-name="Path 6450" d="M1221.512,161.788a.931.931,0,1,1,.931.931.931.931,0,0,1-.931-.931" transform="translate(-1032.406 -109.907)" fill="#383463"/>
    <path id="Path_6451" data-name="Path 6451" d="M1146.145,161.788a.931.931,0,1,1,.931.931.931.931,0,0,1-.931-.931" transform="translate(-980.91 -109.907)" fill="#383463"/>
    <rect id="Rectangle_4868" data-name="Rectangle 4868" width="28.487" height="1.462" transform="translate(163.996 49.75)" fill="#29274f"/>
    <path id="Path_6452" data-name="Path 6452" d="M1170.455,105.527h-28.6a.175.175,0,1,1,0-.349h28.373l11.376-25.94,7.06.09a.175.175,0,0,1,0,.349h0l-6.828-.087Z" transform="translate(-977.859 -54.14)" fill="#29274f"/>
    <path id="Path_6453" data-name="Path 6453" d="M1300.836,165.413v.249h1.184l.136-.481Z" transform="translate(-1086.605 -112.862)" fill="#29274f"/>
    <path id="Path_6454" data-name="Path 6454" d="M1292.868,157.2a3.806,3.806,0,0,1-1.113,1.715c-.541.317-1.576.364-1.852.994a.213.213,0,0,0,.187.3h2.778a5.091,5.091,0,0,1,1.488-.222c.477.071.454-1.134.318-1.579a3.533,3.533,0,0,1-.023-1.207Z" transform="translate(-1079.123 -107.411)" fill="#383463"/>
    <path id="Path_6455" data-name="Path 6455" d="M1288.653,95.963a6.812,6.812,0,0,0,.074.965c.512,3.272,3.486,1.032,3.855-.116a.842.842,0,0,0,.028-.108,8.034,8.034,0,0,1,.437-1.5c1.215-3.106,4.035-5.833,3.436-7.969l-3.208-6.049a30.994,30.994,0,0,0-2.216,5.214c-.522,1.916-2.443,6.536-2.4,9.565" transform="translate(-1078.279 -55.47)" fill="#51497a"/>
    <path id="Path_6456" data-name="Path 6456" d="M1291.57,138.091c.733.387,2.711-.257,2.6-.752-.823-3.56-.152-6.012-1.344-8.748-.017-.041-.035-.082-.054-.122a1.272,1.272,0,0,0-.864-.732,3.667,3.667,0,0,0-3.018.947s0,.006,0,.009c-.059,1.051,2.684,9.4,2.684,9.4" transform="translate(-1078.439 -87.234)" fill="#51497a"/>
    <g id="Group_10858" data-name="Group 10858" transform="translate(215.652 34.275)" opacity="0.5">
      <g id="Group_10857" data-name="Group 10857">
        <g id="Group_10856" data-name="Group 10856" clip-path="url(#clip-path-3)">
          <path id="Path_6457" data-name="Path 6457" d="M1305.38,108.236c-.019.075-.038.15-.056.225a.035.035,0,0,0,.068.019l.056-.225a.035.035,0,0,0-.068-.019" transform="translate(-1305.322 -108.211)" fill="#383463"/>
        </g>
      </g>
    </g>
    <g id="Group_10861" data-name="Group 10861" transform="translate(214.98 35.176)" opacity="0.5">
      <g id="Group_10860" data-name="Group 10860">
        <g id="Group_10859" data-name="Group 10859" clip-path="url(#clip-path-4)">
          <path id="Path_6458" data-name="Path 6458" d="M1303.37,111.089a.3.3,0,0,1-.156.246.035.035,0,0,0,.036.061.377.377,0,0,0,.191-.307c0-.045-.068-.045-.07,0" transform="translate(-1303.198 -111.055)" fill="#383463"/>
        </g>
      </g>
    </g>
    <g id="Group_10864" data-name="Group 10864" transform="translate(214.299 36.583)" opacity="0.5">
      <g id="Group_10863" data-name="Group 10863">
        <g id="Group_10862" data-name="Group 10862" clip-path="url(#clip-path-5)">
          <path id="Path_6459" data-name="Path 6459" d="M1301.3,115.508a.858.858,0,0,0-.244.4.035.035,0,0,0,.068.019.79.79,0,0,1,.225-.373c.033-.031-.017-.081-.05-.05" transform="translate(-1301.051 -115.498)" fill="#383463"/>
        </g>
      </g>
    </g>
    <g id="Group_10867" data-name="Group 10867" transform="translate(213.789 37.53)" opacity="0.5">
      <g id="Group_10866" data-name="Group 10866">
        <g id="Group_10865" data-name="Group 10865" clip-path="url(#clip-path-6)">
          <path id="Path_6460" data-name="Path 6460" d="M1299.612,118.508l-.174.391c-.018.041.042.077.061.035l.174-.391c.018-.041-.042-.077-.061-.035" transform="translate(-1299.437 -118.489)" fill="#383463"/>
        </g>
      </g>
    </g>
    <g id="Group_10870" data-name="Group 10870" transform="translate(213.186 38.83)" opacity="0.5">
      <g id="Group_10869" data-name="Group 10869">
        <g id="Group_10868" data-name="Group 10868" clip-path="url(#clip-path-7)">
          <path id="Path_6461" data-name="Path 6461" d="M1297.7,122.609a.954.954,0,0,0-.172.4c-.008.044.06.063.068.019a.912.912,0,0,1,.165-.385c.027-.036-.034-.072-.061-.035" transform="translate(-1297.527 -122.594)" fill="#383463"/>
        </g>
      </g>
    </g>
    <g id="Group_10873" data-name="Group 10873" transform="translate(212.848 40.068)" opacity="0.5">
      <g id="Group_10872" data-name="Group 10872">
        <g id="Group_10871" data-name="Group 10871" clip-path="url(#clip-path-8)">
          <path id="Path_6462" data-name="Path 6462" d="M1296.585,126.526l-.113.337c-.014.043.054.061.068.019l.112-.337c.014-.043-.054-.061-.068-.019" transform="translate(-1296.471 -126.501)" fill="#383463"/>
        </g>
      </g>
    </g>
    <g id="Group_10876" data-name="Group 10876" transform="translate(212.846 41.078)" opacity="0.5">
      <g id="Group_10875" data-name="Group 10875">
        <g id="Group_10874" data-name="Group 10874" clip-path="url(#clip-path-9)">
          <path id="Path_6463" data-name="Path 6463" d="M1296.459,129.725v.112a.035.035,0,0,0,.07,0v-.112a.035.035,0,0,0-.07,0" transform="translate(-1296.459 -129.691)" fill="#383463"/>
        </g>
      </g>
    </g>
    <g id="Group_10879" data-name="Group 10879" transform="translate(212.795 42.084)" opacity="0.5">
      <g id="Group_10878" data-name="Group 10878">
        <g id="Group_10877" data-name="Group 10877" clip-path="url(#clip-path-10)">
          <path id="Path_6464" data-name="Path 6464" d="M1296.311,132.917a1.064,1.064,0,0,1,.194.5c.005.044.076.045.07,0a1.133,1.133,0,0,0-.2-.532c-.026-.036-.087,0-.061.035" transform="translate(-1296.303 -132.866)" fill="#383463"/>
        </g>
      </g>
    </g>
    <g id="Group_10882" data-name="Group 10882" transform="translate(213.34 43.5)" opacity="0.5">
      <g id="Group_10881" data-name="Group 10881">
        <g id="Group_10880" data-name="Group 10880" clip-path="url(#clip-path-11)">
          <path id="Path_6465" data-name="Path 6465" d="M1298.027,137.379l.18.445c.017.041.085.023.068-.019l-.18-.445c-.017-.041-.085-.023-.068.019" transform="translate(-1298.023 -137.337)" fill="#383463"/>
        </g>
      </g>
    </g>
    <g id="Group_10885" data-name="Group 10885" transform="translate(213.637 45.065)" opacity="0.5">
      <g id="Group_10884" data-name="Group 10884">
        <g id="Group_10883" data-name="Group 10883" clip-path="url(#clip-path-12)">
          <path id="Path_6466" data-name="Path 6466" d="M1298.966,142.332l.056.112c.02.04.081,0,.061-.035l-.056-.112c-.02-.041-.081,0-.061.035" transform="translate(-1298.961 -142.279)" fill="#383463"/>
        </g>
      </g>
    </g>
    <g id="Group_10888" data-name="Group 10888" transform="translate(213.803 46.527)" opacity="0.5">
      <g id="Group_10887" data-name="Group 10887">
        <g id="Group_10886" data-name="Group 10886" clip-path="url(#clip-path-13)">
          <path id="Path_6467" data-name="Path 6467" d="M1299.493,146.956a.207.207,0,0,1,.044.191.035.035,0,0,0,.068.019.282.282,0,0,0-.061-.26c-.03-.034-.079.016-.05.05" transform="translate(-1299.483 -146.895)" fill="#383463"/>
        </g>
      </g>
    </g>
    <g id="Group_10891" data-name="Group 10891" transform="translate(213.967 48.274)" opacity="0.5">
      <g id="Group_10890" data-name="Group 10890">
        <g id="Group_10889" data-name="Group 10889" clip-path="url(#clip-path-14)">
          <path id="Path_6468" data-name="Path 6468" d="M1300.005,152.452l.119.561c.01.044.077.026.068-.019l-.119-.561c-.01-.044-.077-.026-.068.019" transform="translate(-1300.003 -152.408)" fill="#383463"/>
        </g>
      </g>
    </g>
    <g id="Group_10894" data-name="Group 10894" transform="translate(214.252 49.792)" opacity="0.5">
      <g id="Group_10893" data-name="Group 10893">
        <g id="Group_10892" data-name="Group 10892" clip-path="url(#clip-path-15)">
          <path id="Path_6469" data-name="Path 6469" d="M1300.9,157.235v.056a.035.035,0,0,0,.07,0v-.056a.035.035,0,0,0-.07,0" transform="translate(-1300.897 -157.201)" fill="#383463"/>
        </g>
      </g>
    </g>
    <g id="Group_10897" data-name="Group 10897" transform="translate(213.182 39.733)" opacity="0.5">
      <g id="Group_10896" data-name="Group 10896">
        <g id="Group_10895" data-name="Group 10895" clip-path="url(#clip-path-16)">
          <path id="Path_6470" data-name="Path 6470" d="M1297.726,126.823a1.248,1.248,0,0,1,.915.231c.044.03.069.05.069.05l.013-.037c-.017-.04-.035-.081-.054-.122a8.079,8.079,0,0,1,.437-1.5v0c-.392.549-1.238.435-1.3.7a.165.165,0,0,0,0,.063c.032.213.475.254.236.323-.261.075-.821.4-.315.287" transform="translate(-1297.521 -125.444)" fill="#383463"/>
        </g>
      </g>
    </g>
    <path id="Path_6472" data-name="Path 6472" d="M1331.93,156.464v0c-.017.187-.09.32-.246.337a3.375,3.375,0,0,0-.964.361c-.256.131-.448.246-.448.246l-2.3.606h-.693a.222.222,0,0,1-.019-.128c.109-.693,1.118-1.01,1.57-1.464a2.4,2.4,0,0,0,.511-1.092,5.942,5.942,0,0,0,.142-.891l1.761-.464a4.9,4.9,0,0,0,.1.541,2.325,2.325,0,0,0,.24.646,2.677,2.677,0,0,1,.344,1.3" transform="translate(-1104.662 -105.204)" fill="#383463"/>
    <path id="Path_6473" data-name="Path 6473" d="M1305.433,83.924s1.771,7.088,1.978,6.655c0,0,.692,3.326,2.114,8.046.537,1.781,4.218,8.23,4.339,8.661a3.654,3.654,0,0,0,1.562-.3,5.727,5.727,0,0,0,1.309-.778c.328-.334-3.19-5.663-3.758-12.6-.514-6.276-1.473-8.866-1.939-9.991Z" transform="translate(-1089.744 -57.131)" fill="#51497a"/>
    <path id="Path_6474" data-name="Path 6474" d="M1308.249,45.567c-.051.21-.1.426-.145.644h0a51.611,51.611,0,0,0-1.242,10.311c.045.435-9.058-.106-8.98-.3,0,0,1.153-4.633,1.224-5.37.053-.542-.647-8.47-.647-8.47l.954-2.576c1.739-.8,6.394-.693,7.776.294.768.548,1.918,1.955,1.06,5.467" transform="translate(-1084.586 -26.836)" fill="#ff6576"/>
    <g id="Group_10900" data-name="Group 10900" transform="translate(216.615 31.135)" opacity="0.5">
      <g id="Group_10899" data-name="Group 10899">
        <g id="Group_10898" data-name="Group 10898" clip-path="url(#clip-path-17)">
          <path id="Path_6475" data-name="Path 6475" d="M1308.362,98.336a9.122,9.122,0,0,1,1.1,2.591.024.024,0,0,0,.047-.013,9.156,9.156,0,0,0-1.109-2.6c-.016-.026-.058,0-.042.024" transform="translate(-1308.359 -98.3)" fill="#383463"/>
        </g>
      </g>
    </g>
    <g id="Group_10903" data-name="Group 10903" transform="translate(221.512 41.559)" opacity="0.5">
      <g id="Group_10902" data-name="Group 10902">
        <g id="Group_10901" data-name="Group 10901" clip-path="url(#clip-path-18)">
          <path id="Path_6476" data-name="Path 6476" d="M1324.847,131.223a4.029,4.029,0,0,1-1.024,1.437c-.023.021.011.055.034.034a4.058,4.058,0,0,0,1.032-1.447c.012-.028-.03-.053-.042-.024" transform="translate(-1323.816 -131.21)" fill="#383463"/>
        </g>
      </g>
    </g>
    <g id="Group_10906" data-name="Group 10906" transform="translate(222.162 41.84)" opacity="0.5">
      <g id="Group_10905" data-name="Group 10905">
        <g id="Group_10904" data-name="Group 10904" clip-path="url(#clip-path-19)">
          <path id="Path_6477" data-name="Path 6477" d="M1326.345,132.112l-.474,1.156c-.012.029.035.041.047.013l.473-1.156c.012-.029-.035-.041-.047-.013" transform="translate(-1325.87 -132.096)" fill="#383463"/>
        </g>
      </g>
    </g>
    <path id="Path_6478" data-name="Path 6478" d="M1321.592,19.016a.713.713,0,0,1,.572.13.757.757,0,0,0-.445.015c-.229.084-.127-.145-.127-.145" transform="translate(-1100.77 -12.984)" fill="#421c26"/>
    <path id="Path_6479" data-name="Path 6479" d="M1320.892,18.653a.742.742,0,0,0,.492-.336.774.774,0,0,1-.422.153c-.242.007-.07.183-.07.183" transform="translate(-1100.268 -12.515)" fill="#421c26"/>
    <path id="Path_6480" data-name="Path 6480" d="M1308.221,19.731a4.589,4.589,0,0,0-.133,1.241c.081.288.491-1.1.491-1.1Z" transform="translate(-1091.547 -13.481)" fill="#421c26"/>
    <path id="Path_6481" data-name="Path 6481" d="M1312.594,32.79a.6.6,0,0,1-.429-.516c-.056-.5-.122-1.171-.155-1.8a4.138,4.138,0,0,1,.2-.8c-.02,0-2.648.6-2.38,1.415.012.036.022.074.032.114a3.255,3.255,0,0,1,.049.9c-.006.1-.015.194-.026.286-.018.149-.26.352-.778.391-.042.145-.382,1.677,1.07,1.852.54.065,2.162-.125,2.651-1.123a4.3,4.3,0,0,0,.234-.585c-.1-.028-.372-.113-.469-.14" transform="translate(-1092.213 -20.279)" fill="#fabba5"/>
    <path id="Path_6482" data-name="Path 6482" d="M1313.826,31.949c-.023.117,0,.559-.009.694a2.341,2.341,0,0,1-2.139,1.012,3.244,3.244,0,0,0-.049-.9,8.519,8.519,0,0,1,2.2-.806" transform="translate(-1093.979 -21.826)" fill="#ed938b"/>
    <path id="Path_6483" data-name="Path 6483" d="M1310.908,23.767c-.119.317-1.245.512-1.692.536a1.571,1.571,0,0,1-.987-.136,3.438,3.438,0,0,1-.539-2.174,4.345,4.345,0,0,0,.073-1.047,4.2,4.2,0,0,1,.42-1.608c1.766-1.15,3.138.7,3.222,1.392a6.75,6.75,0,0,1-.5,3.038" transform="translate(-1091.264 -12.961)" fill="#fabba5"/>
    <path id="Path_6484" data-name="Path 6484" d="M1313.384,24.295c.084.02.1-.052.028-.1a.935.935,0,0,0-.906-.131c-.5.115-.477.406-.194.379a1.975,1.975,0,0,1,1.072-.143" transform="translate(-1094.309 -16.404)" fill="#421c26"/>
    <path id="Path_6485" data-name="Path 6485" d="M1308.014,24.081c-.046.006-.043-.152,0-.191.094-.092.251-.156.49.006.262.177.225.358.074.294a.843.843,0,0,0-.562-.109" transform="translate(-1091.486 -16.259)" fill="#421c26"/>
    <path id="Path_6486" data-name="Path 6486" d="M1308.869,26.037a.513.513,0,0,0-.3-.221.23.23,0,0,0-.091.006,1.448,1.448,0,0,0-.2.115c-.027.015.332-.434.576.013.008.015.016.031.025.049s.017.04.026.062c.021.054.007.028-.031-.023" transform="translate(-1091.684 -17.595)" fill="#421c26"/>
    <path id="Path_6487" data-name="Path 6487" d="M1309.351,26.1a.233.233,0,0,1-.005.038.139.139,0,0,1-.059.09.215.215,0,0,1-.174.018.235.235,0,0,1-.12-.093.181.181,0,0,1,.013-.194l.038-.041.015-.017.149.038.083.061.031.046.005.005c.008.015.016.031.025.049" transform="translate(-1092.162 -17.698)" fill="#421c26"/>
    <path id="Path_6488" data-name="Path 6488" d="M1314.462,26.381a.206.206,0,1,1-.41-.024.222.222,0,0,1,.034-.105.208.208,0,0,1,.073-.071c.078,0,.154.01.224.019a.213.213,0,0,1,.076.131.229.229,0,0,1,0,.051" transform="translate(-1095.633 -17.888)" fill="#421c26"/>
    <path id="Path_6489" data-name="Path 6489" d="M1313.875,26.245c.027.091-.16-.232-.639-.163a.807.807,0,0,0-.336.153c-.036.025-.036-.018,0-.047a.627.627,0,0,1,.421-.194.7.7,0,0,1,.557.251" transform="translate(-1094.828 -17.761)" fill="#421c26"/>
    <path id="Path_6490" data-name="Path 6490" d="M1310.237,25.529a.434.434,0,0,1,.188.412.887.887,0,0,1-.219.476c-.073.092-.249.232-.2.372a.274.274,0,0,0,.141.124,1.074,1.074,0,0,0,.235.092c.024.007.037-.032.013-.038a1.025,1.025,0,0,1-.261-.108c-.069-.041-.119-.094-.081-.183a.484.484,0,0,1,.086-.121,1.56,1.56,0,0,0,.266-.389.532.532,0,0,0-.149-.671c-.021-.013-.043.021-.021.034" transform="translate(-1092.865 -17.418)" fill="#cf8171"/>
    <path id="Path_6491" data-name="Path 6491" d="M1310.2,33.347a.569.569,0,0,1,.392.015c.047.019.072-.058.025-.077a.64.64,0,0,0-.433-.018c-.048.015-.032.094.016.08" transform="translate(-1092.971 -22.71)" fill="#ef9f8a"/>
    <path id="Path_6492" data-name="Path 6492" d="M1312.729,18.526a2.392,2.392,0,0,1-1.218,1.264c.117-.541.226-1.67.1-1.675s-.5.381-.45.182a1.063,1.063,0,0,0,.028-.93,1.231,1.231,0,0,1,.022-.966l-.006,0h0a1.009,1.009,0,0,1-.155.044h0a2.522,2.522,0,0,1-.53.042,4.978,4.978,0,0,1-.534-.035c-.192-.023-.38-.054-.548-.092a3.03,3.03,0,0,1-.412-.118,1.243,1.243,0,0,0-.182-.055.742.742,0,0,0-.115-.016c-.243-.012-.281.139-.281.139a1.245,1.245,0,0,1-.135-1.216,1.576,1.576,0,0,1,.674-.834.533.533,0,0,0,.345.263.621.621,0,0,1-.021-.14.5.5,0,0,1,.052-.248h0a2.116,2.116,0,0,0,1.661.436c1.633-.092,1.538,1.109,1.538,1.109.765.525.462,1.981.174,2.844" transform="translate(-1091.639 -9.66)" fill="#421c26"/>
    <path id="Path_6493" data-name="Path 6493" d="M1317.566,26.944s.427-.6.775-.3-.057.808-.21,1-.251.2-.512.118-.053-.821-.053-.821" transform="translate(-1097.982 -18.148)" fill="#fabba5"/>
    <path id="Path_6494" data-name="Path 6494" d="M1317.851,27.71a.275.275,0,0,0,.414.074.81.81,0,0,0,.2-.225,2.109,2.109,0,0,0,.183-.315.523.523,0,0,0-.035-.6.392.392,0,0,0-.546.05c-.02.019.008.052.027.033a.35.35,0,0,1,.509-.033c.146.156.069.41-.015.58a1.61,1.61,0,0,1-.282.419c-.111.11-.333.175-.417,0-.012-.025-.049-.005-.037.02" transform="translate(-1098.229 -18.145)" fill="#ef9f8a"/>
    <path id="Path_6495" data-name="Path 6495" d="M1318.513,27.176a.309.309,0,0,0-.164.115.232.232,0,0,0-.018.2c.03.142-.107.162-.179.246a.151.151,0,0,0-.028.168c.012.025.049.005.037-.02-.065-.136.187-.2.216-.317.012-.05-.012-.086-.021-.133-.021-.113.075-.186.164-.218.025-.009.017-.052-.009-.042" transform="translate(-1098.406 -18.568)" fill="#ef9f8a"/>
    <path id="Path_6496" data-name="Path 6496" d="M1313.832,16.061c-.288.543-1.345.718-1.345.718l-.006,0h0c-.021.006-.075.023-.155.044h0a2.522,2.522,0,0,1-.53.043,5.065,5.065,0,0,1-.534-.035c-.192-.023-.38-.054-.548-.092s-.3-.089-.412-.118c-.526-.132.05-.92.05-.92a.677.677,0,0,0,.43.353c-.169-.315.142-.657.142-.657a.559.559,0,0,0,.8.257.78.78,0,0,1-.407-.311.629.629,0,0,1-.018-.654s.246.344,1,.261c1.615-.178,1.538,1.109,1.538,1.109" transform="translate(-1092.918 -10.038)" fill="#6d2f3b"/>
    <path id="Path_6497" data-name="Path 6497" d="M1314.509,14.65a.809.809,0,0,0,.674.387l.029-.1a1.316,1.316,0,0,1-.7-.283" transform="translate(-1095.947 -10.01)" fill="#6d2f3b"/>
    <path id="Path_6498" data-name="Path 6498" d="M1311.33,14.263s.01.337.219.423l.006-.1a.54.54,0,0,1-.225-.32" transform="translate(-1093.775 -9.745)" fill="#421c26"/>
    <path id="Path_6499" data-name="Path 6499" d="M1309.764,17.855s-.275.789.144.888l-.022-.294a.7.7,0,0,1-.121-.594" transform="translate(-1092.643 -12.2)" fill="#6d2f3b"/>
    <path id="Path_6500" data-name="Path 6500" d="M1311.98,17.118s-.1.487.084.636.17-.074.17-.074a.678.678,0,0,1-.254-.562" transform="translate(-1094.199 -11.696)" fill="#6d2f3b"/>
    <path id="Path_6501" data-name="Path 6501" d="M1310.815,30.8a.527.527,0,0,1-.189.261.654.654,0,0,1-.472.173.6.6,0,0,1-.29-.111.5.5,0,0,1-.213-.321.143.143,0,0,1,0-.045.016.016,0,0,1,0-.01c.008-.013.031-.016.05-.018.076-.01.213.036.436.059.148.015.4-.029.553-.032h.058c.036,0,.062.009.063.025a.049.049,0,0,1,0,.018" transform="translate(-1092.627 -20.996)" fill="#e33b58"/>
    <path id="Path_6502" data-name="Path 6502" d="M1310.765,30.759a.879.879,0,0,1-1.1,0s0-.005,0-.008.031-.016.051-.018c.076-.01.213.036.436.059.148.015.4-.029.553-.032a.566.566,0,0,1,.058,0" transform="translate(-1092.639 -20.997)" fill="#fff"/>
    <path id="Path_6503" data-name="Path 6503" d="M1311.089,31.627a.652.652,0,0,1-.472.173.6.6,0,0,1-.29-.111,1.126,1.126,0,0,1,.547-.129.548.548,0,0,1,.215.067" transform="translate(-1093.092 -21.561)" fill="#ff6576"/>
    <g id="Group_10909" data-name="Group 10909" transform="translate(215.693 31.519)" opacity="0.5">
      <g id="Group_10908" data-name="Group 10908">
        <g id="Group_10907" data-name="Group 10907" clip-path="url(#clip-path-20)">
          <path id="Path_6504" data-name="Path 6504" d="M1305.469,100.133q.4.176.807.338c.022.009.042-.013.044-.034a.894.894,0,0,0-.158-.388l-.26-.522c-.02-.04-.079,0-.06.035l.2.4c.06.121.217.341.21.475l.044-.033q-.4-.158-.791-.33c-.04-.018-.075.042-.035.06" transform="translate(-1305.451 -99.51)" fill="#383463"/>
        </g>
      </g>
    </g>
    <path id="Path_6505" data-name="Path 6505" d="M1318.159,39.783a12.493,12.493,0,0,0-1.657,5.3l.59.231s.466-3.972,1.522-5.437c0,0-.118-.307-.455-.1" transform="translate(-1097.309 -27.131)" fill="#51497a"/>
    <path id="Path_6506" data-name="Path 6506" d="M1303.5,39.547a12.793,12.793,0,0,0-1.82,5.436l.534.1a15.977,15.977,0,0,1,1.862-5.61,1.439,1.439,0,0,0-.576.07" transform="translate(-1087.182 -26.97)" fill="#51497a"/>
    <path id="Path_6507" data-name="Path 6507" d="M1299,56.687a7.9,7.9,0,0,0,4.215,0h.482s1.961,4.306,3.223,4.852c0,0-.413,2.753-.465,3.679-.06,1.052.053,4.214.053,4.214l-9.453-.244s.947-4.633,1-6.128.47-6.313.47-6.313Z" transform="translate(-1084.02 -38.729)" fill="#51497a"/>
    <path id="Path_6508" data-name="Path 6508" d="M1302.172,58.242a1.28,1.28,0,0,0,.317-.014c.057-.009.033-.1-.024-.086a1.194,1.194,0,0,1-.293.01c-.057,0-.057.085,0,.09" transform="translate(-1087.488 -39.725)" fill="#ff6576"/>
    <path id="Path_6509" data-name="Path 6509" d="M1315.965,58.066a1.7,1.7,0,0,0,.376-.007c.056-.007.057-.1,0-.089a1.7,1.7,0,0,1-.376.007c-.057-.005-.057.084,0,.09" transform="translate(-1096.912 -39.608)" fill="#ff6576"/>
    <g id="Group_10912" data-name="Group 10912" transform="translate(219.422 29.387)" opacity="0.5">
      <g id="Group_10911" data-name="Group 10911">
        <g id="Group_10910" data-name="Group 10910" clip-path="url(#clip-path-21)">
          <path id="Path_6510" data-name="Path 6510" d="M1317.219,92.815a4.587,4.587,0,0,1,.353.913.94.94,0,0,0,.314.557,1.158,1.158,0,0,0,.673.091l1-.005a.024.024,0,0,0,0-.048l-.813,0c-.274,0-.672.073-.888-.13a1.52,1.52,0,0,1-.3-.706,4.12,4.12,0,0,0-.294-.7c-.015-.028-.056,0-.042.024" transform="translate(-1317.217 -92.779)" fill="#383463"/>
        </g>
      </g>
    </g>
    <g id="Group_10915" data-name="Group 10915" transform="translate(221.865 30.969)" opacity="0.5">
      <g id="Group_10914" data-name="Group 10914">
        <g id="Group_10913" data-name="Group 10913" clip-path="url(#clip-path-22)">
          <path id="Path_6511" data-name="Path 6511" d="M1324.943,97.8a10.784,10.784,0,0,1,.421,3.625c0,.6.008,1.2.068,1.8a10.591,10.591,0,0,0,.36,1.741,4.266,4.266,0,0,1,.175.957c.01.28-.081.556-.059.834a.764.764,0,0,0,.269.479.415.415,0,0,1,.118.48.786.786,0,0,0-.08.357,2.434,2.434,0,0,0,.327.792l.441.9.9,1.834,2,4.084c.014.028.055,0,.042-.024-1.175-2.4-2.379-4.786-3.524-7.2a.8.8,0,0,1-.1-.613.906.906,0,0,0,.092-.335c-.013-.182-.173-.3-.284-.423-.231-.264-.12-.577-.093-.888a2.885,2.885,0,0,0-.068-.836c-.125-.6-.33-1.166-.416-1.771a14.018,14.018,0,0,1-.11-1.856,11.9,11.9,0,0,0-.424-3.951c-.01-.029-.057-.016-.047.013" transform="translate(-1324.941 -97.775)" fill="#383463"/>
        </g>
      </g>
    </g>
    <path id="Path_6512" data-name="Path 6512" d="M1317.939,52.869a10.86,10.86,0,0,0,1.6-2.14.092.092,0,0,0-.158-.092,10.661,10.661,0,0,1-1.568,2.1c-.081.085.048.215.13.13" transform="translate(-1098.184 -34.568)" fill="#d83957"/>
    <path id="Path_6513" data-name="Path 6513" d="M1273.016,79.5h-7.7a.5.5,0,1,1,0-.991h7.7a.5.5,0,1,1,0,.991" transform="translate(-1061.998 -53.643)" fill="#383463"/>
    <path id="Path_6514" data-name="Path 6514" d="M1286.793,75.545a2.43,2.43,0,0,0-1.33-.285c-.431.071-1.521-.241-1.611-.151-.342.34.853.62.759.874-.161.433-1.072.717-1.457.946-1.149.684,1.631,1.532,2.318,1.357.839-.213,1.256-.391,1.54-.806s-.219-1.934-.219-1.934" transform="translate(-1074.336 -51.308)" fill="#fabba5"/>
    <path id="Path_6515" data-name="Path 6515" d="M1294.23,60.8a27.9,27.9,0,0,0,9.614-5.693c.056-.054-.228-4.323-1.075-4.871-.441-.286-1.183-.275-1.35.949-.4,2.951-8.632,7-8.632,7-.107,2.262,1.443,2.613,1.443,2.613" transform="translate(-1081.102 -34.22)" fill="#ff6576"/>
    <path id="Path_6516" data-name="Path 6516" d="M1323.96,65.23a3.637,3.637,0,0,0,1.365-1.731c.042-.11-.135-.158-.176-.049a3.424,3.424,0,0,1-1.281,1.621c-.1.066-.005.225.093.158" transform="translate(-1102.313 -43.311)" fill="#d83957"/>
    <path id="Path_6517" data-name="Path 6517" d="M952.724,165.664v.251H951.53l-.137-.486Z" transform="translate(-822.32 -113.031)" fill="#29274f"/>
    <path id="Path_6518" data-name="Path 6518" d="M953.029,157.38a3.838,3.838,0,0,0,1.123,1.73c.546.32,1.59.367,1.868,1a.214.214,0,0,1-.188.3h-2.8a5.147,5.147,0,0,0-1.5-.224c-.482.072-.458-1.143-.321-1.593a3.568,3.568,0,0,0,.023-1.218Z" transform="translate(-822.137 -107.532)" fill="#51497a"/>
    <path id="Path_6519" data-name="Path 6519" d="M923.033,165.664v.251h1.195l.137-.486Z" transform="translate(-802.945 -113.031)" fill="#29274f"/>
    <path id="Path_6520" data-name="Path 6520" d="M914.993,157.38a3.839,3.839,0,0,1-1.123,1.73c-.546.32-1.59.367-1.868,1a.214.214,0,0,0,.188.3h2.8a5.147,5.147,0,0,1,1.5-.224c.481.072.458-1.143.321-1.593a3.567,3.567,0,0,1-.023-1.218Z" transform="translate(-795.395 -107.532)" fill="#51497a"/>
    <path id="Path_6521" data-name="Path 6521" d="M931.019,84.536a31.3,31.3,0,0,1,1,5.629c.08,2-.11,6.319-.082,9.662.04,4.81.3,8.146.177,8.3-.217.268-.429.017-1.324.228a1.44,1.44,0,0,1-1.4-.245s-.269-1.826-.727-4.913c-.164-1.107-.343-2.306-.525-3.519-.6-4.029-.879-7.715-1.083-8.143,0,0-.867,3.234-2.088,7.948-1.414,5.461-2.466,8.7-2.585,9.127a1.593,1.593,0,0,1-1.257-.136c-.317-.137-1.084-.1-1.33-.354-.323-.329,1.2-6.741,1.762-13.592.508-6.2,1.455-8.758,1.916-9.869Z" transform="translate(-800.699 -57.76)" fill="#51497a"/>
    <path id="Path_6522" data-name="Path 6522" d="M926.071,45.272c.031.337.2,1.414.407,2.686.034.21.069.426.1.644h0c.347,2.123.742,4.511.76,4.887.054,1.129,7.865.948,7.839.216-.02-.537,1.136-8.313,1.136-8.313l-.781-2.336a18.66,18.66,0,0,0-7.872-.108,2,2,0,0,0-1.594,2.324" transform="translate(-805.012 -29.086)" fill="#ff6576"/>
    <path id="Path_6523" data-name="Path 6523" d="M942.238,40.286s.06.119.169.323c.059.11.132.245.216.4.2.37.475.85.788,1.363.916,1.5,2.183,3.29,3.1,3.444.178.029,5.277.735,4.154-.495s-3.617-4.332-5.025-4.573c-.4-.068-.831-.134-1.248-.193-.779-.109-1.508-.2-1.885-.239l-.27-.031" transform="translate(-816.068 -27.526)" fill="#ff6576"/>
    <path id="Path_6524" data-name="Path 6524" d="M911.162,48.767s4.32.97,3.789.428c-.377-.385,2.49-3.675,3.068-3.765.923-.144,1.879-1.977,2.526-3.51.192-.454.356-.881.484-1.231.055-.15.1-.286.144-.4s.075-.216.1-.293c.039-.116.06-.181.06-.181s-.762.187-1.735.386c-.377.077-.786.156-1.2.227a4.615,4.615,0,0,0-3.661,2.393c-.871,1.954-3.181,3.846-3.581,5.951" transform="translate(-794.832 -27.201)" fill="#ff6576"/>
    <path id="Path_6525" data-name="Path 6525" d="M938.1,34.262a.59.59,0,0,0,.453-.484c.085-.491.19-1.147.259-1.761a4.069,4.069,0,0,0-.152-.8c.019.005,2.576.749,2.263,1.535-.013.035-.027.072-.038.111a3.2,3.2,0,0,0-.1.885,4.908,4.908,0,0,0,.031.538l.544.074a1.9,1.9,0,0,1,.044.544,1.413,1.413,0,0,1-1.025,1.273,2.9,2.9,0,0,1-.385.114,1.436,1.436,0,0,1-1.248-.243,2.6,2.6,0,0,1-.779-1.169,4.878,4.878,0,0,1-.169-.554l.3-.063" transform="translate(-813.033 -21.329)" fill="#fabba5"/>
    <path id="Path_6526" data-name="Path 6526" d="M940.79,33.489c.016.117-.033.551-.032.685a2.313,2.313,0,0,0,2.049,1.124,3.2,3.2,0,0,1,.1-.885,8.429,8.429,0,0,0-2.118-.924" transform="translate(-815.055 -22.88)" fill="#ed938b"/>
    <path id="Path_6527" data-name="Path 6527" d="M942.767,102.621a2.827,2.827,0,0,0-.374.868c-.1.339-.183.681-.275,1.022a.043.043,0,1,1-.083-.024c.094-.352.183-.705.284-1.055a2.826,2.826,0,0,1,.373-.857c.032-.047.107,0,.074.045" transform="translate(-815.926 -70.073)" fill="#383463"/>
    <path id="Path_6528" data-name="Path 6528" d="M949.022,100.282a2.485,2.485,0,0,0-.858.658l-.042-.075a7.589,7.589,0,0,1,1.2-.2c.055-.005.055.085,0,.09a7.444,7.444,0,0,0-1.176.2.045.045,0,0,1-.042-.075,2.542,2.542,0,0,1,.875-.672c.05-.023.094.054.043.078" transform="translate(-820.066 -68.462)" fill="#383463"/>
    <path id="Path_6529" data-name="Path 6529" d="M929.253,101.311l-.069.288c-.014.056-.1.032-.083-.024l.069-.289c.014-.056.1-.032.083.024" transform="translate(-807.088 -69.184)" fill="#383463"/>
    <path id="Path_6530" data-name="Path 6530" d="M928.2,104.5l-.074.432c-.01.057-.092.033-.083-.024l.073-.432c.01-.057.093-.033.083.024" transform="translate(-806.365 -71.365)" fill="#383463"/>
    <path id="Path_6531" data-name="Path 6531" d="M927.342,109.288l-.071.288a.043.043,0,1,1-.083-.024l.07-.288a.043.043,0,1,1,.083.024" transform="translate(-805.783 -74.634)" fill="#383463"/>
    <path id="Path_6532" data-name="Path 6532" d="M926.659,113.832l-.077.5c-.009.057-.092.033-.083-.024l.077-.5c.009-.057.091-.033.083.024" transform="translate(-805.313 -77.738)" fill="#383463"/>
    <path id="Path_6533" data-name="Path 6533" d="M926.16,120.647v.576a.043.043,0,1,1-.086,0v-.576a.043.043,0,1,1,.086,0" transform="translate(-805.023 -82.404)" fill="#383463"/>
    <path id="Path_6534" data-name="Path 6534" d="M925.981,127.039a.277.277,0,0,0-.053.245.043.043,0,1,1-.083.024.373.373,0,0,1,.075-.333c.036-.044.1.02.061.064" transform="translate(-804.857 -86.747)" fill="#383463"/>
    <path id="Path_6535" data-name="Path 6535" d="M923.759,133.128a2.944,2.944,0,0,0,1.264.969c.051.02.029.107-.023.087a3.022,3.022,0,0,1-1.3-.992c-.034-.045.027-.109.061-.064" transform="translate(-803.393 -90.95)" fill="#383463"/>
    <path id="Path_6536" data-name="Path 6536" d="M923.876,133.934l.45.791c.028.05-.046.1-.074.046l-.45-.791c-.028-.05.046-.1.074-.046" transform="translate(-803.465 -91.497)" fill="#383463"/>
    <path id="Path_6537" data-name="Path 6537" d="M947.181,134.572l.767.764c.04.04-.021.1-.061.064l-.767-.764c-.04-.04.021-.1.061-.064" transform="translate(-819.393 -91.939)" fill="#383463"/>
    <path id="Path_6538" data-name="Path 6538" d="M948.508,137.126a4.839,4.839,0,0,1,.618,1.149c.021.054-.063.077-.083.024a4.768,4.768,0,0,0-.609-1.128c-.034-.046.041-.091.074-.046" transform="translate(-820.293 -93.68)" fill="#383463"/>
    <path id="Path_6539" data-name="Path 6539" d="M923.761,140.226v.162a.043.043,0,1,1-.086,0v-.162a.043.043,0,1,1,.086,0" transform="translate(-803.385 -95.781)" fill="#383463"/>
    <path id="Path_6540" data-name="Path 6540" d="M923.273,144.152v.487a.043.043,0,1,1-.086,0v-.487a.043.043,0,1,1,.086,0" transform="translate(-803.049 -98.464)" fill="#383463"/>
    <path id="Path_6541" data-name="Path 6541" d="M922.658,148.265a.5.5,0,0,0-.045.29c.008.057-.075.081-.083.024a.615.615,0,0,1,.054-.359c.025-.052.1-.006.074.046" transform="translate(-802.598 -101.257)" fill="#383463"/>
    <path id="Path_6542" data-name="Path 6542" d="M922.163,155.431a.309.309,0,0,0-.041.237c.013.056-.07.08-.083.024a.4.4,0,0,1,.049-.307.044.044,0,0,1,.074.046" transform="translate(-802.258 -106.155)" fill="#383463"/>
    <path id="Path_6543" data-name="Path 6543" d="M934.161,41.491a16.928,16.928,0,0,1,.746,4.848h-.49a36.041,36.041,0,0,0-.851-4.74,2.24,2.24,0,0,1,.594-.108" transform="translate(-810.141 -28.349)" fill="#51497a"/>
    <path id="Path_6544" data-name="Path 6544" d="M951.116,41.447a17.907,17.907,0,0,1,.122,4.855l-.487-.056a36.058,36.058,0,0,0-.261-4.9,2.038,2.038,0,0,1,.626.1" transform="translate(-821.705 -28.252)" fill="#51497a"/>
    <path id="Path_6545" data-name="Path 6545" d="M935.473,56.8a8.02,8.02,0,0,1-4.281,0h-.49s-.821,4.691-2.1,5.245v3.116l-.47,4.149,9.323-.549s-.654-5.2-.7-6.716a48.856,48.856,0,0,0-.789-5.184Z" transform="translate(-806.426 -38.807)" fill="#51497a"/>
    <path id="Path_6546" data-name="Path 6546" d="M930.383,93.809l-.313.95-.163.494a.393.393,0,0,1-.178.26,2.232,2.232,0,0,1-.8.2,2.872,2.872,0,0,1-.872-.048c-.054-.011-.031-.1.023-.087a2.794,2.794,0,0,0,.8.05,2.281,2.281,0,0,0,.8-.19c.134-.066.159-.246.2-.381l.138-.418.282-.855a.043.043,0,1,1,.083.024" transform="translate(-806.359 -64.059)" fill="#383463"/>
    <path id="Path_6547" data-name="Path 6547" d="M954.728,95.142l.283,1.07c.023.085.041.174.068.257.035.107.113.136.207.175l.479.2c.051.021.029.108-.023.087-.182-.077-.365-.153-.547-.231-.151-.065-.185-.155-.227-.314l-.323-1.223a.043.043,0,1,1,.083-.024" transform="translate(-824.543 -64.985)" fill="#383463"/>
    <path id="Path_6548" data-name="Path 6548" d="M947.575,76.441q-.916,1.766-1.776,3.56c-.025.053-.1.007-.079-.046q.86-1.794,1.776-3.56c.027-.052.105-.006.078.046" transform="translate(-818.443 -52.182)" fill="#383463"/>
    <path id="Path_6549" data-name="Path 6549" d="M944.786,82.405q-.245.723-.556,1.419c-.024.053-.1.007-.079-.046q.306-.686.546-1.4c.019-.055.106-.032.088.024" transform="translate(-817.371 -56.266)" fill="#383463"/>
    <path id="Path_6550" data-name="Path 6550" d="M951.492,58.378a1.288,1.288,0,0,1-.322-.014c-.058-.01-.033-.1.024-.088a1.2,1.2,0,0,0,.3.011c.058,0,.058.086,0,.091" transform="translate(-822.146 -39.818)" fill="#383463"/>
    <path id="Path_6551" data-name="Path 6551" d="M937.333,58.2a1.73,1.73,0,0,1-.382-.007c-.057-.007-.058-.1,0-.091a1.731,1.731,0,0,0,.382.007c.058-.005.058.086,0,.091" transform="translate(-812.426 -39.698)" fill="#383463"/>
    <rect id="Rectangle_4889" data-name="Rectangle 4889" width="14.109" height="11.463" transform="translate(119.758 17.256)" fill="#faa36b"/>
    <rect id="Rectangle_4890" data-name="Rectangle 4890" width="14.109" height="11.463" transform="translate(125.346 17.256)" fill="#ffca87"/>
    <rect id="Rectangle_4891" data-name="Rectangle 4891" width="1.301" height="0.868" transform="translate(124.045 18.993)" fill="#f9924f"/>
    <rect id="Rectangle_4892" data-name="Rectangle 4892" width="1.301" height="0.868" transform="translate(125.346 18.993)" fill="#ffb060"/>
    <rect id="Rectangle_4893" data-name="Rectangle 4893" width="1.301" height="0.868" transform="translate(124.045 26.011)" fill="#f9924f"/>
    <rect id="Rectangle_4894" data-name="Rectangle 4894" width="1.301" height="0.868" transform="translate(125.346 26.011)" fill="#ffb060"/>
    <rect id="Rectangle_4895" data-name="Rectangle 4895" width="1.301" height="0.868" transform="translate(138.154 26.011)" fill="#ffb060"/>
    <rect id="Rectangle_4896" data-name="Rectangle 4896" width="1.301" height="0.868" transform="translate(138.154 18.993)" fill="#ffb060"/>
    <rect id="Rectangle_4897" data-name="Rectangle 4897" width="3.147" height="1.574" transform="translate(127.543 24.479) rotate(-13.164)" fill="#fff"/>
    <path id="Path_6552" data-name="Path 6552" d="M982.782,65.4c.486-.026.661.057.674.3s-.1.287-.581.313-1.016.013-1.029-.226.45-.357.936-.383" transform="translate(-843.129 -44.682)" fill="#ffccbc"/>
    <path id="Path_6553" data-name="Path 6553" d="M982.222,67.174c.594-.032.808.049.82.289s-.12.288-.715.32-1.243.026-1.256-.214.555-.363,1.15-.395" transform="translate(-842.602 -45.893)" fill="#ffccbc"/>
    <path id="Path_6554" data-name="Path 6554" d="M982.228,68.739c.564-.03.767.051.78.291s-.113.288-.677.318-1.18.022-1.192-.217.526-.361,1.09-.391" transform="translate(-842.646 -46.962)" fill="#ffccbc"/>
    <path id="Path_6555" data-name="Path 6555" d="M983.019,70.273c.405-.022.552.049.563.253s-.079.245-.485.266-.848.01-.859-.194.376-.3.781-.326" transform="translate(-843.396 -48.012)" fill="#ffccbc"/>
    <path id="Path_6556" data-name="Path 6556" d="M983.033,67.254l.982-.009c.031,0,.028-.048,0-.048l-.982.009c-.031,0-.029.048,0,.048" transform="translate(-843.924 -45.913)" fill="#eea490"/>
    <path id="Path_6557" data-name="Path 6557" d="M982.187,68.957a9.3,9.3,0,0,0,1.383-.041c.031,0,.029-.051,0-.048a9.3,9.3,0,0,1-1.383.042c-.031,0-.028.047,0,.048" transform="translate(-843.346 -47.055)" fill="#eea490"/>
    <path id="Path_6558" data-name="Path 6558" d="M982.6,70.552a6.728,6.728,0,0,0,1.121-.05c.03,0,.029-.052,0-.048a6.692,6.692,0,0,1-1.121.05c-.031,0-.028.047,0,.048" transform="translate(-843.629 -48.138)" fill="#eea490"/>
    <path id="Path_6559" data-name="Path 6559" d="M944.37,18.054a.958.958,0,0,0-.9-1.548c-.618.093-1.253.785-1.9.391-.022-.013,0-.048.02-.034.435.266.92-.008,1.321-.2a1.327,1.327,0,0,1,1.007-.156,1.008,1.008,0,0,1,.48,1.571c-.015.02-.05,0-.034-.02" transform="translate(-815.609 -11.244)" fill="#6d2f3b"/>
    <path id="Path_6560" data-name="Path 6560" d="M941.891,21.968a.735.735,0,0,0-.58-.018.785.785,0,0,1,.425.121c.2.132.156-.1.156-.1" transform="translate(-815.434 -14.961)" fill="#2d2b4e"/>
    <path id="Path_6561" data-name="Path 6561" d="M939.17,31.1c.037.01.224.058.478.138-.012-.134-.421-.13-.478-.138" transform="translate(-813.971 -21.248)" fill="#fabba5"/>
    <path id="Path_6562" data-name="Path 6562" d="M939.866,25.652c.106.3,1.214.525,1.656.562a1.624,1.624,0,0,0,.982-.1,3.153,3.153,0,0,0,.614-2.037,3.914,3.914,0,0,1-.034-.992,3.815,3.815,0,0,0-.357-1.533,2.163,2.163,0,0,0-3.242,1.21,6.107,6.107,0,0,0,.38,2.887" transform="translate(-814.154 -14.465)" fill="#fabba5"/>
    <path id="Path_6563" data-name="Path 6563" d="M942.756,26.133c-.085.016-.1-.052-.023-.1a.962.962,0,0,1,.9-.094c.49.125.457.4.178.365a2.035,2.035,0,0,0-1.057-.171" transform="translate(-816.373 -17.682)" fill="#752d4b"/>
    <path id="Path_6564" data-name="Path 6564" d="M949.425,26.146c.045.007.048-.143.01-.181-.09-.09-.243-.155-.486-.01-.266.159-.236.331-.085.275a.869.869,0,0,1,.56-.084" transform="translate(-820.516 -17.676)" fill="#752d4b"/>
    <path id="Path_6565" data-name="Path 6565" d="M943.715,27.838a.2.2,0,1,0,.407-.01.2.2,0,0,0-.029-.1.719.719,0,0,0-.29-.03c-.04.029-.072.042-.083.092a.2.2,0,0,0,0,.048" transform="translate(-817.076 -18.923)" fill="#752d4b"/>
    <path id="Path_6566" data-name="Path 6566" d="M943.025,27.783c-.03.085.167-.213.639-.133a.815.815,0,0,1,.328.156c.034.025.035-.016,0-.044a.63.63,0,0,0-.409-.2.7.7,0,0,0-.561.219" transform="translate(-816.602 -18.832)" fill="#752d4b"/>
    <path id="Path_6567" data-name="Path 6567" d="M947.7,27.441a.406.406,0,0,0-.2.383.817.817,0,0,0,.2.457c.069.09.238.227.18.359a.27.27,0,0,1-.144.113,1.089,1.089,0,0,1-.236.08c-.024.005-.035-.032-.011-.037a1.037,1.037,0,0,0,.263-.093c.07-.037.121-.085.087-.171a.459.459,0,0,0-.08-.117,1.463,1.463,0,0,1-.249-.376.49.49,0,0,1,.172-.63c.022-.011.042.021.021.033" transform="translate(-819.637 -18.726)" fill="#cf8171"/>
    <path id="Path_6568" data-name="Path 6568" d="M947.427,34.833a.588.588,0,0,0-.389,0c-.047.016-.069-.057-.022-.073a.661.661,0,0,1,.43,0c.047.016.028.09-.019.074" transform="translate(-819.313 -23.725)" fill="#ef9f8a"/>
    <path id="Path_6569" data-name="Path 6569" d="M935.962,20.934a2.307,2.307,0,0,0,1.16,1.234c-.1-.515-.162-1.585-.036-1.586s.476.376.439.187a.964.964,0,0,1,.007-.88,1.115,1.115,0,0,0,.014-.913l.006,0,0,0a1.038,1.038,0,0,0,.152.046h0a2.631,2.631,0,0,0,.523.058,5.261,5.261,0,0,0,.53-.016c.191-.015.378-.039.546-.068a3.127,3.127,0,0,0,.412-.1,1.239,1.239,0,0,1,.182-.046.7.7,0,0,1,.115-.011c.241,0,.274.141.274.141a1.134,1.134,0,0,0,.178-1.145,1.072,1.072,0,0,0-1.388-.769,2.325,2.325,0,0,1-1.278.185c-1.617-.1-1.564,1-1.564,1-.777.471-.53,1.857-.276,2.681" transform="translate(-811.609 -11.627)" fill="#6d2f3b"/>
    <path id="Path_6570" data-name="Path 6570" d="M939.262,28.511s-.4-.584-.757-.307.027.766.172.953.241.2.5.128.083-.774.083-.774" transform="translate(-813.416 -19.219)" fill="#fabba5"/>
    <path id="Path_6571" data-name="Path 6571" d="M939.2,29.232a.281.281,0,0,1-.413.057.787.787,0,0,1-.19-.219,1.953,1.953,0,0,1-.17-.3.476.476,0,0,1,.057-.564.4.4,0,0,1,.539.065c.018.019-.01.049-.029.03a.358.358,0,0,0-.5-.048c-.15.143-.084.385-.006.549a1.516,1.516,0,0,0,.264.405c.106.107.323.176.414.009a.021.021,0,0,1,.036.02" transform="translate(-813.416 -19.216)" fill="#ef9f8a"/>
    <path id="Path_6572" data-name="Path 6572" d="M939.55,28.716a.306.306,0,0,1,.159.114.211.211,0,0,1,.01.191c-.035.133.1.156.168.239a.138.138,0,0,1,.021.159.021.021,0,0,1-.036-.02c.07-.126-.178-.192-.2-.307-.01-.048.015-.08.025-.125.025-.106-.068-.178-.155-.211-.024-.009-.015-.049.01-.04" transform="translate(-814.215 -19.619)" fill="#ef9f8a"/>
    <path id="Path_6573" data-name="Path 6573" d="M945.457,32.4a.5.5,0,0,0,.177.252.662.662,0,0,0,.461.179.617.617,0,0,0,.291-.1.47.47,0,0,0,.223-.3.157.157,0,0,0,0-.042.018.018,0,0,0,0-.009c-.008-.013-.03-.016-.049-.019-.075-.012-.212.027-.434.041-.147.009-.4-.041-.546-.049h-.057c-.036,0-.061.006-.063.022a.034.034,0,0,0,0,.017" transform="translate(-818.266 -22.112)" fill="#e33b58"/>
    <path id="Path_6574" data-name="Path 6574" d="M945.659,32.364a.9.9,0,0,0,1.087.035v-.007c-.008-.013-.03-.016-.049-.019-.075-.011-.213.028-.434.041-.148.009-.4-.041-.547-.048a.5.5,0,0,0-.057,0" transform="translate(-818.404 -22.113)" fill="#fff"/>
    <path id="Path_6575" data-name="Path 6575" d="M946.021,33.159a.663.663,0,0,0,.461.179.617.617,0,0,0,.291-.1,1.156,1.156,0,0,0-.537-.139.561.561,0,0,0-.215.056" transform="translate(-818.65 -22.617)" fill="#ff6576"/>
    <path id="Path_6576" data-name="Path 6576" d="M946.6,17.129a1.212,1.212,0,0,1,1.089.217.836.836,0,0,1,.234.961c-.01.023-.044,0-.034-.02a.8.8,0,0,0-.283-.956,1.188,1.188,0,0,0-1-.163c-.025.006-.035-.032-.01-.038" transform="translate(-819.039 -11.675)" fill="#6d2f3b"/>
    <path id="Path_6577" data-name="Path 6577" d="M937.174,19.222a.943.943,0,0,0,.143.675c.014.021-.02.041-.034.02a.985.985,0,0,1-.147-.705c0-.025.042-.015.038.01" transform="translate(-812.57 -13.116)" fill="#6d2f3b"/>
    <path id="Path_6578" data-name="Path 6578" d="M936.494,20.774a1.918,1.918,0,0,0-.531.264c-.021.015-.041-.019-.02-.034a1.937,1.937,0,0,1,.54-.268.02.02,0,0,1,.011.038" transform="translate(-811.76 -14.167)" fill="#6d2f3b"/>
    <path id="Path_6579" data-name="Path 6579" d="M945.528,20.205c.367-.085.407-.6.341-.9-.081-.377-.444-.461-.779-.472-.025,0-.026-.04,0-.04.382.012.76.128.827.554.049.316,0,.808-.379.9-.025.006-.035-.032-.01-.038" transform="translate(-818.002 -12.841)" fill="#7a3a49"/>
    <path id="Path_6580" data-name="Path 6580" d="M945.021,20.361a.886.886,0,0,1,.456.4.69.69,0,0,1,.018.524c-.008.024-.047.014-.038-.01a.651.651,0,0,0-.035-.535A.889.889,0,0,0,945,20.4c-.023-.011,0-.046.02-.034" transform="translate(-817.949 -13.91)" fill="#7a3a49"/>
    <path id="Path_6581" data-name="Path 6581" d="M939.682,21.909a3.455,3.455,0,0,1-.8-.535c-.019-.017.009-.045.028-.028a3.427,3.427,0,0,0,.789.529c.023.011,0,.045-.02.034" transform="translate(-813.771 -14.581)" fill="#7a3a49"/>
    <path id="Path_6582" data-name="Path 6582" d="M948.79,27.8a.47.47,0,0,1,.291-.187.205.205,0,0,1,.084.011,1.331,1.331,0,0,1,.18.117c.024.015-.283-.418-.532-.02-.008.014-.017.028-.025.044s-.018.036-.027.056c-.022.048-.009.025.03-.02" transform="translate(-820.516 -18.823)" fill="#752d4b"/>
    <path id="Path_6583" data-name="Path 6583" d="M948.87,27.858a.181.181,0,0,0,0,.036.125.125,0,0,0,.049.086.2.2,0,0,0,.16.026.215.215,0,0,0,.116-.08.167.167,0,0,0,0-.18l-.033-.04-.013-.016-.14.027-.08.052-.031.041-.005,0c-.008.013-.017.028-.025.044" transform="translate(-820.598 -18.919)" fill="#752d4b"/>
    <path id="Path_6584" data-name="Path 6584" d="M932.608,78.5c-.406-.329-1.6.154-2.069.055l-.529-.608-1.226.929.743.791a2.118,2.118,0,0,0,.276.315c.7.559,1.221.181,1.492.316.078.039.5.383.61.286.061-.055-.293-.475-.451-.7a.036.036,0,0,1,.038-.056c.36.1.922.592,1.076.442.032-.032-.243-.365-.41-.578a1.655,1.655,0,0,0-.5-.333.015.015,0,0,1,.008-.029,1.84,1.84,0,0,1,.539.155c.212.106.732.447.964.318.1-.054-.546-.507-.782-.721a.566.566,0,0,0-.163-.092.012.012,0,0,1,.005-.023,1.269,1.269,0,0,1,.262.046c.367.157.811.419,1.027.24.056-.046-.815-.68-.9-.752" transform="translate(-806.873 -53.259)" fill="#fabba5"/>
    <path id="Path_6585" data-name="Path 6585" d="M917.412,71.91a24.566,24.566,0,0,1-4.248-2.1,4.3,4.3,0,0,1-2-3.109.358.358,0,0,1,.238-.37c.566-.2,2.039-.6,2.974.23,1.177,1.044,1.506,1.68,2.441,2.425.563.449,1.48.693,1.533.938s-.366.56-.349.866-.377,1.187-.584,1.121" transform="translate(-794.83 -45.134)" fill="#ff6576"/>
  </g>
</svg>
