<svg xmlns="http://www.w3.org/2000/svg" xmlns:xlink="http://www.w3.org/1999/xlink" width="240" height="45" viewBox="0 0 240 45">
  <defs>
    <clipPath id="clip-path">
      <rect id="Rectangle_4966" data-name="Rectangle 4966" width="240" height="45"/>
    </clipPath>
    <linearGradient id="linear-gradient" x1="0.085" y1="-0.041" x2="0.916" y2="1.041" gradientUnits="objectBoundingBox">
      <stop offset="0" stop-color="#9f0100"/>
      <stop offset="0.361" stop-color="#ca110f"/>
      <stop offset="1" stop-color="#fa632c"/>
    </linearGradient>
    <clipPath id="clip-path-2">
      <path id="Path_6650" data-name="Path 6650" d="M132.549,12.146c-.115-.028-.189.167-.31.262-.284.223-.574.44-.877.661-.462.336-.963.657-1.435.989a56.748,56.748,0,0,0,5.307-2.576c.5-.219.789,0,.391.453A21.2,21.2,0,0,1,133.3,13.76c-1.29.94-2.634,1.856-4.044,2.714-.715.437-1.444.864-2.194,1.277-.447.247-2.023,1.024-2.257,1.235a43.669,43.669,0,0,0,12.536-6.639c.318-.226.7-.545,1.018-.74.511-.309.773-.08.205.416-.288.252-.492.427-.549.476a50.881,50.881,0,0,1-4.808,3.578,62.269,62.269,0,0,1-11.971,6.093,32.265,32.265,0,0,0,6.311-1.838,55.15,55.15,0,0,0,11.881-6.5c1.019-.69,1.146-.079,0,.843a65.1,65.1,0,0,1-7.5,5.754,21.9,21.9,0,0,0-1.837,1.21,65,65,0,0,0,6.544-3.321c.8-.466,2.648-1.6,3.323-1.974.466-.256.692-.1.063.625a17.434,17.434,0,0,1-5.818,4.152,15.34,15.34,0,0,0,5.972-2.8c-.067,3.523,2.223,5.468,5.188,6.235a.867.867,0,0,0,.168-.016.672.672,0,0,0,.41-.062.5.5,0,0,0,.233-.418v-.076a.761.761,0,0,0,.039-.242v-4.8c.031-4.393-.017-8.72-.017-13.1a.473.473,0,0,0-.149-.341.516.516,0,0,0-.357-.143H126.735a.515.515,0,0,0-.427.224c-.207.306.205,1.22.346,1.544,1.688,3.89,6.091,5.077,5.892,5.029h0Z" transform="translate(-121.233 -5.35)"/>
    </clipPath>
    <linearGradient id="linear-gradient-2" x1="-0.041" y1="0.5" x2="1.01" y2="0.5" gradientUnits="objectBoundingBox">
      <stop offset="0" stop-color="#f31c19"/>
      <stop offset="1" stop-color="#ff0"/>
    </linearGradient>
  </defs>
  <g id="logo" clip-path="url(#clip-path)">
    <g id="Group_10962" data-name="Group 10962">
      <path id="Path_6641" data-name="Path 6641" d="M21.475,21.926V18.391H2.528v3.535h7.706V43.135h3.535V21.926Z" transform="translate(-2.528 -6.741)" fill="#007db8"/>
      <path id="Path_6642" data-name="Path 6642" d="M31.251,32.641H22.2a5.292,5.292,0,0,1,4.735-2.9,5.449,5.449,0,0,1,1.662.247,5.386,5.386,0,0,1,1.361.636,3.318,3.318,0,0,1,.936.919,1.95,1.95,0,0,1,.357,1.1Zm4.03,3.4a10.341,10.341,0,0,0-.336-4.418,7.381,7.381,0,0,0-1.818-3.006,7.215,7.215,0,0,0-2.827-1.7,10.653,10.653,0,0,0-3.322-.53,8.318,8.318,0,0,0-3.376.689,9.084,9.084,0,0,0-2.757,1.855,8.769,8.769,0,0,0-1.876,2.722,8.111,8.111,0,0,0-.691,3.324A9.211,9.211,0,0,0,19,38.6a9.6,9.6,0,0,0,1.965,2.986A9.225,9.225,0,0,0,23.883,43.6a8.774,8.774,0,0,0,3.588.742,11.953,11.953,0,0,0,3.553-.531,13.11,13.11,0,0,0,3.163-1.449V38.685a9.2,9.2,0,0,1-2.739,1.555,9.769,9.769,0,0,1-3.446.6,6.286,6.286,0,0,1-2.157-.371,6.351,6.351,0,0,1-1.821-1.008,5.933,5.933,0,0,1-1.34-1.519,5.84,5.84,0,0,1-.76-1.909H35.28Z" transform="translate(-4.208 -7.594)" fill="#007db8"/>
      <path id="Path_6643" data-name="Path 6643" d="M56.441,43.17l-9.12-9.544,7.671-6.716H49.618l-5.726,4.913V18.391H40.357V43.136h3.535V35.145l7.6,8.024Z" transform="translate(-6.563 -6.741)" fill="#007db8"/>
      <path id="Path_6644" data-name="Path 6644" d="M78.284,27.294H74.361L68.7,37.827,63.223,27.294H59.232L66.69,41.645,64.215,46.38a4.694,4.694,0,0,1-1.7,1.767,4.391,4.391,0,0,1-2.333.672v3.535a7.817,7.817,0,0,0,4.134-1.183,7.969,7.969,0,0,0,2.972-3.129Z" transform="translate(-8.576 -7.691)" fill="#007db8"/>
      <path id="Path_6645" data-name="Path 6645" d="M95.534,38.83a3.95,3.95,0,0,0-.724-2.509,5.122,5.122,0,0,0-1.821-1.449,10.229,10.229,0,0,0-2.35-.8q-1.251-.268-2.35-.53a6.757,6.757,0,0,1-1.821-.69,1.382,1.382,0,0,1-.724-1.272,1.279,1.279,0,0,1,.724-1.308,4.339,4.339,0,0,1,1.75-.318,8.592,8.592,0,0,1,3.252.6,7.752,7.752,0,0,1,2.512,1.588V28.085a11.032,11.032,0,0,0-2.7-1.219,10.548,10.548,0,0,0-3.058-.442,6.654,6.654,0,0,0-2.333.406,6.121,6.121,0,0,0-1.91,1.114,5.43,5.43,0,0,0-1.29,1.644,4.338,4.338,0,0,0-.477,2,4.525,4.525,0,0,0,.724,2.722,5.157,5.157,0,0,0,1.821,1.555,9.756,9.756,0,0,0,2.368.849l2.368.53a7.8,7.8,0,0,1,1.821.619,1.19,1.19,0,0,1,.724,1.113,1.487,1.487,0,0,1-.5,1.219,3.266,3.266,0,0,1-1.131.6,4.8,4.8,0,0,1-1.272.213q-.636.018-.919.018a7.057,7.057,0,0,1-3.642-.953A6.253,6.253,0,0,1,82.1,37.419v4.772a9.023,9.023,0,0,0,2.81,1.75,9.139,9.139,0,0,0,3.376.618,13.442,13.442,0,0,0,2.81-.283,6.31,6.31,0,0,0,2.3-.954,4.913,4.913,0,0,0,1.555-1.767,5.741,5.741,0,0,0,.583-2.722Z" transform="translate(-11.016 -7.598)" fill="#007db8"/>
      <path id="Path_6646" data-name="Path 6646" d="M110.166,42.294V38.721a6.348,6.348,0,0,1-1.876.937,6.58,6.58,0,0,1-1.98.336,2.176,2.176,0,0,1-1.767-.884,3.509,3.509,0,0,1-.707-2.262V18.47H100.3V37.912a5.379,5.379,0,0,0,.459,2.227,5.494,5.494,0,0,0,1.272,1.787,5.86,5.86,0,0,0,1.909,1.185,6.505,6.505,0,0,0,2.368.424,6.58,6.58,0,0,0,1.98-.336,6.907,6.907,0,0,0,1.876-.9h0Z" transform="translate(-12.957 -6.749)" fill="#007db8"/>
      <path id="Path_6647" data-name="Path 6647" d="M122.7,40.24a7.065,7.065,0,0,1-1.573.689,5.618,5.618,0,0,1-1.644.268,7.611,7.611,0,0,1-2.35-.318,1.364,1.364,0,0,1-.972-1.449,1.691,1.691,0,0,1,.513-1.273,3.363,3.363,0,0,1,1.4-.76,10.541,10.541,0,0,1,2.086-.371q1.2-.106,2.545-.106Zm3.535,3.747V33.559a8.46,8.46,0,0,0-.724-3.8,5.826,5.826,0,0,0-1.767-2.173,5.676,5.676,0,0,0-2.227-.972,11.188,11.188,0,0,0-2.1-.23,8.9,8.9,0,0,0-2.581.406,9.251,9.251,0,0,0-2.332,1.043l-1.34,4.454h.357a9.127,9.127,0,0,1,2.863-1.855,8.25,8.25,0,0,1,2.9-.513,4.962,4.962,0,0,1,1.7.247,2.4,2.4,0,0,1,1.06.724,2.68,2.68,0,0,1,.53,1.2,8.625,8.625,0,0,1,.141,1.644,20.025,20.025,0,0,0-4.645.459A9.836,9.836,0,0,0,115,35.43a4.64,4.64,0,0,0-1.7,1.838,5.054,5.054,0,0,0-.513,2.227,3.972,3.972,0,0,0,.459,1.891,5.309,5.309,0,0,0,1.237,1.537,5.656,5.656,0,0,0,1.821,1.043,6.649,6.649,0,0,0,2.245.371,7.941,7.941,0,0,0,2.1-.318,7.32,7.32,0,0,0,2.068-.919v.884h3.535Z" transform="translate(-14.288 -7.594)" fill="#007db8"/>
      <path id="Path_6648" data-name="Path 6648" d="M132.549,12.146c-.115-.028-.189.167-.31.262-.284.223-.574.44-.877.661-.462.336-.963.657-1.435.989a56.765,56.765,0,0,0,5.307-2.576c.5-.219.789,0,.391.453A21.209,21.209,0,0,1,133.3,13.76c-1.29.94-2.634,1.856-4.044,2.714q-1.072.655-2.194,1.277c-.447.247-2.023,1.024-2.257,1.235a43.669,43.669,0,0,0,12.536-6.639c.318-.226.7-.545,1.018-.74.511-.309.773-.08.205.416-.288.252-.492.427-.549.476a50.9,50.9,0,0,1-4.808,3.578,62.27,62.27,0,0,1-11.971,6.093,32.273,32.273,0,0,0,6.311-1.838,55.15,55.15,0,0,0,11.881-6.5c1.019-.69,1.146-.079,0,.843a65.1,65.1,0,0,1-7.5,5.754,21.9,21.9,0,0,0-1.837,1.21,65,65,0,0,0,6.544-3.321c.8-.466,2.648-1.6,3.323-1.974.466-.256.692-.1.063.625a17.434,17.434,0,0,1-5.818,4.152,15.34,15.34,0,0,0,5.972-2.8c-.067,3.523,2.223,5.468,5.188,6.235a.867.867,0,0,0,.168-.016.673.673,0,0,0,.41-.062.5.5,0,0,0,.233-.418v-.076a.759.759,0,0,0,.039-.242v-4.8c.031-4.393-.017-8.72-.017-13.1a.473.473,0,0,0-.149-.341.516.516,0,0,0-.357-.143H126.735a.515.515,0,0,0-.427.224c-.206.306.205,1.22.346,1.544,1.688,3.89,6.091,5.077,5.892,5.029h0Z" transform="translate(-15.19 -5.35)" fill-rule="evenodd" fill="url(#linear-gradient)"/>
      <g id="Group_10956" data-name="Group 10956" transform="translate(106.043)" clip-path="url(#clip-path-2)">
        <path id="Path_6649" data-name="Path 6649" d="M121.223,5.348h24.993v19.2H121.223Z" transform="translate(-121.232 -5.35)" fill="rgba(0,0,0,0)" fill-rule="evenodd"/>
      </g>
      <g id="Group_10958" data-name="Group 10958" transform="translate(106.043)" clip-path="url(#clip-path-2)">
        <g id="Group_10957" data-name="Group 10957" transform="translate(-0.009 -0.002)">
          <path id="Path_6651" data-name="Path 6651" d="M121.223,5.348h24.993v19.2H121.223Z" transform="translate(-121.223 -5.348)" fill="rgba(0,0,0,0)" fill-rule="evenodd"/>
        </g>
      </g>
      <path id="Path_6653" data-name="Path 6653" d="M132.549,12.146c-.115-.028-.189.167-.31.262-.284.223-.574.44-.877.661-.462.336-.963.657-1.435.989a56.748,56.748,0,0,0,5.307-2.576c.5-.219.789,0,.391.453A21.2,21.2,0,0,1,133.3,13.76c-1.29.94-2.634,1.856-4.044,2.714-.715.437-1.444.864-2.194,1.277-.447.247-2.023,1.024-2.257,1.235a43.669,43.669,0,0,0,12.536-6.639c.318-.226.7-.545,1.018-.74.511-.309.773-.08.205.416-.288.252-.492.427-.549.476a50.881,50.881,0,0,1-4.808,3.578,62.269,62.269,0,0,1-11.971,6.093,32.265,32.265,0,0,0,6.311-1.838,55.15,55.15,0,0,0,11.881-6.5c1.019-.69,1.146-.079,0,.843a65.1,65.1,0,0,1-7.5,5.754,21.9,21.9,0,0,0-1.837,1.21,65,65,0,0,0,6.544-3.321c.8-.466,2.648-1.6,3.323-1.974.466-.256.692-.1.063.625a17.434,17.434,0,0,1-5.818,4.152,15.34,15.34,0,0,0,5.972-2.8c-.067,3.523,2.223,5.468,5.188,6.235a.867.867,0,0,0,.168-.016.672.672,0,0,0,.41-.062.5.5,0,0,0,.233-.418v-.076a.761.761,0,0,0,.039-.242v-4.8c.031-4.393-.017-8.72-.017-13.1a.473.473,0,0,0-.149-.341.516.516,0,0,0-.357-.143H126.735a.515.515,0,0,0-.427.224c-.207.306.205,1.22.346,1.544,1.688,3.89,6.091,5.077,5.892,5.029h0Z" transform="translate(-15.19 -5.35)" fill="none" fill-rule="evenodd"/>
      <g id="Group_10959" data-name="Group 10959" transform="translate(106.043)" clip-path="url(#clip-path-2)">
        <path id="Path_6654" data-name="Path 6654" d="M121.223,5.348h24.993v19.2H121.223Z" transform="translate(-121.232 -5.35)" fill="rgba(0,0,0,0)" fill-rule="evenodd"/>
      </g>
      <g id="Group_10961" data-name="Group 10961" transform="translate(106.043)" clip-path="url(#clip-path-2)">
        <g id="Group_10960" data-name="Group 10960" transform="translate(4.443 -4.612)">
          <path id="Path_6656" data-name="Path 6656" d="M126.249,1.373s-.983,5.125,6.458,7.515,11.922.554,14.4,4.192,2.233,5.615,2.233,5.615V.187l-23.1,1.186Z" transform="translate(-126.206 -0.187)" fill-rule="evenodd" fill="url(#linear-gradient-2)"/>
        </g>
      </g>
      <path id="Path_6658" data-name="Path 6658" d="M132.549,12.146c-.115-.028-.189.167-.31.262-.284.223-.574.44-.877.661-.462.336-.963.657-1.435.989a56.748,56.748,0,0,0,5.307-2.576c.5-.219.789,0,.391.453A21.2,21.2,0,0,1,133.3,13.76c-1.29.94-2.634,1.856-4.044,2.714-.715.437-1.444.864-2.194,1.277-.447.247-2.023,1.024-2.257,1.235a43.669,43.669,0,0,0,12.536-6.639c.318-.226.7-.545,1.018-.74.511-.309.773-.08.205.416-.288.252-.492.427-.549.476a50.881,50.881,0,0,1-4.808,3.578,62.269,62.269,0,0,1-11.971,6.093,32.265,32.265,0,0,0,6.311-1.838,55.15,55.15,0,0,0,11.881-6.5c1.019-.69,1.146-.079,0,.843a65.1,65.1,0,0,1-7.5,5.754,21.9,21.9,0,0,0-1.837,1.21,65,65,0,0,0,6.544-3.321c.8-.466,2.648-1.6,3.323-1.974.466-.256.692-.1.063.625a17.434,17.434,0,0,1-5.818,4.152,15.34,15.34,0,0,0,5.972-2.8c-.067,3.523,2.223,5.468,5.188,6.235a.867.867,0,0,0,.168-.016.672.672,0,0,0,.41-.062.5.5,0,0,0,.233-.418v-.076a.761.761,0,0,0,.039-.242v-4.8c.031-4.393-.017-8.72-.017-13.1a.473.473,0,0,0-.149-.341.516.516,0,0,0-.357-.143H126.735a.515.515,0,0,0-.427.224c-.207.306.205,1.22.346,1.544,1.688,3.89,6.091,5.077,5.892,5.029h0Z" transform="translate(-15.19 -5.35)" fill="none" fill-rule="evenodd"/>
      <path id="Path_6659" data-name="Path 6659" d="M132.549,12.146c-.115-.028-.189.167-.31.262-.284.223-.574.44-.877.661-.462.336-.963.657-1.435.989a56.765,56.765,0,0,0,5.307-2.576c.5-.219.789,0,.391.453A21.209,21.209,0,0,1,133.3,13.76c-1.29.94-2.634,1.856-4.044,2.714q-1.072.655-2.194,1.277c-.447.247-2.023,1.024-2.257,1.235a43.669,43.669,0,0,0,12.536-6.639c.318-.226.7-.545,1.018-.74.511-.309.773-.08.205.416-.288.252-.492.427-.549.476a50.9,50.9,0,0,1-4.808,3.578,62.27,62.27,0,0,1-11.971,6.093,32.273,32.273,0,0,0,6.311-1.838,55.15,55.15,0,0,0,11.881-6.5c1.019-.69,1.146-.079,0,.843a65.1,65.1,0,0,1-7.5,5.754,21.9,21.9,0,0,0-1.837,1.21,65,65,0,0,0,6.544-3.321c.8-.466,2.648-1.6,3.323-1.974.466-.256.692-.1.063.625a17.434,17.434,0,0,1-5.818,4.152,15.34,15.34,0,0,0,5.972-2.8c-.067,3.523,2.223,5.468,5.188,6.235a.867.867,0,0,0,.168-.016.673.673,0,0,0,.41-.062.5.5,0,0,0,.233-.418v-.076a.759.759,0,0,0,.039-.242v-4.8c.031-4.393-.017-8.72-.017-13.1a.473.473,0,0,0-.149-.341.516.516,0,0,0-.357-.143H126.735a.515.515,0,0,0-.427.224c-.206.306.205,1.22.346,1.544,1.688,3.89,6.091,5.077,5.892,5.029h0Z" transform="translate(-15.19 -5.35)" fill="none" fill-rule="evenodd"/>
      <path id="Path_6660" data-name="Path 6660" d="M132.549,12.146c-.115-.028-.189.167-.31.262-.284.223-.574.44-.877.661-.462.336-.963.657-1.435.989a56.765,56.765,0,0,0,5.307-2.576c.5-.219.789,0,.391.453A21.209,21.209,0,0,1,133.3,13.76c-1.29.94-2.634,1.856-4.044,2.714q-1.072.655-2.194,1.277c-.447.247-2.023,1.024-2.257,1.235a43.669,43.669,0,0,0,12.536-6.639c.318-.226.7-.545,1.018-.74.511-.309.773-.08.205.416-.288.252-.492.427-.549.476a50.9,50.9,0,0,1-4.808,3.578,62.27,62.27,0,0,1-11.971,6.093,32.273,32.273,0,0,0,6.311-1.838,55.15,55.15,0,0,0,11.881-6.5c1.019-.69,1.146-.079,0,.843a65.1,65.1,0,0,1-7.5,5.754,21.9,21.9,0,0,0-1.837,1.21,65,65,0,0,0,6.544-3.321c.8-.466,2.648-1.6,3.323-1.974.466-.256.692-.1.063.625a17.434,17.434,0,0,1-5.818,4.152,15.34,15.34,0,0,0,5.972-2.8c-.067,3.523,2.223,5.468,5.188,6.235a.867.867,0,0,0,.168-.016.673.673,0,0,0,.41-.062.5.5,0,0,0,.233-.418v-.076a.759.759,0,0,0,.039-.242v-4.8c.031-4.393-.017-8.72-.017-13.1a.473.473,0,0,0-.149-.341.516.516,0,0,0-.357-.143H126.735a.515.515,0,0,0-.427.224c-.206.306.205,1.22.346,1.544,1.688,3.89,6.091,5.077,5.892,5.029h0Z" transform="translate(-15.19 -5.35)" fill="none" fill-rule="evenodd"/>
      <path id="Path_6661" data-name="Path 6661" d="M143.7,34.757a5.086,5.086,0,0,1-.406,2.014,5.21,5.21,0,0,1-1.113,1.662,5.327,5.327,0,0,1-1.626,1.113,4.84,4.84,0,0,1-1.98.406,6.789,6.789,0,0,1-2.4-.424,5.942,5.942,0,0,1-1.944-1.167V31.328a6.234,6.234,0,0,1,1.927-1.185,6.505,6.505,0,0,1,2.421-.442,4.839,4.839,0,0,1,1.98.406,5.487,5.487,0,0,1,1.626,1.1,5.11,5.11,0,0,1,1.113,1.608,4.751,4.751,0,0,1,.406,1.944Zm3.535,0a8.109,8.109,0,0,0-.69-3.323,8.81,8.81,0,0,0-4.6-4.577,8.232,8.232,0,0,0-3.34-.69,8.381,8.381,0,0,0-2.316.318,8.748,8.748,0,0,0-2.068.884V18.391h-3.535V43.136h3.535v-.813a8.308,8.308,0,0,0,2.05.866,8.649,8.649,0,0,0,2.3.3,8.23,8.23,0,0,0,3.34-.69,8.844,8.844,0,0,0,4.631-4.645,8.442,8.442,0,0,0,.69-3.395h0Z" transform="translate(-16.199 -7.06)" fill="#007db8"/>
    </g>
    <path id="Path_6662" data-name="Path 6662" d="M2.324-7.109,4.375-1.66,6.421-7.109h1.6V0H6.787V-2.344l.122-3.135L4.81,0H3.926l-2.1-5.474.122,3.13V0H.723V-7.109ZM13.633-3.174h-2.92V-.986h3.413V0H9.478V-7.109h4.614v1H10.713V-4.15h2.92Zm5.654,0h-2.92V-.986H19.78V0H15.132V-7.109h4.614v1H16.367V-4.15h2.92ZM26.02-6.113H23.8V0H22.578V-6.113h-2.2v-1h5.64Zm4.57,4.282a.858.858,0,0,0-.33-.723,3.965,3.965,0,0,0-1.189-.513A5.741,5.741,0,0,1,27.7-3.643a1.824,1.824,0,0,1-.972-1.592,1.732,1.732,0,0,1,.7-1.416,2.836,2.836,0,0,1,1.819-.557,3.072,3.072,0,0,1,1.323.273,2.172,2.172,0,0,1,.913.779,2,2,0,0,1,.332,1.121h-1.23a1.114,1.114,0,0,0-.349-.872,1.441,1.441,0,0,0-1-.315,1.5,1.5,0,0,0-.94.259.862.862,0,0,0-.334.723.78.78,0,0,0,.361.652,4.163,4.163,0,0,0,1.191.508,5.48,5.48,0,0,1,1.333.562,2.12,2.12,0,0,1,.737.723,1.882,1.882,0,0,1,.234.955,1.692,1.692,0,0,1-.681,1.414A2.955,2.955,0,0,1,29.3.1a3.473,3.473,0,0,1-1.418-.286,2.383,2.383,0,0,1-1.006-.789,1.965,1.965,0,0,1-.359-1.172h1.235a1.15,1.15,0,0,0,.4.938,1.753,1.753,0,0,0,1.148.33,1.523,1.523,0,0,0,.969-.261.843.843,0,0,0,.322-.691Z" transform="translate(142 36)" fill="#ee4f25"/>
    <path id="Path_6663" data-name="Path 6663" d="M5.859-6.113H3.643V0H2.417V-6.113H.22v-1H5.86Zm5.088,2.939H8.027V-.986H11.44V0H6.792V-7.109h4.614v1H8.027V-4.15h2.92Zm6.924.859a2.567,2.567,0,0,1-.84,1.775A2.863,2.863,0,0,1,15.083.1a2.772,2.772,0,0,1-1.5-.4,2.644,2.644,0,0,1-1-1.145,4.132,4.132,0,0,1-.366-1.724v-.664a4.162,4.162,0,0,1,.356-1.772A2.686,2.686,0,0,1,13.6-6.792a2.853,2.853,0,0,1,1.541-.415,2.748,2.748,0,0,1,1.9.637,2.663,2.663,0,0,1,.835,1.8h-1.23a1.756,1.756,0,0,0-.447-1.106,1.477,1.477,0,0,0-1.052-.339,1.442,1.442,0,0,0-1.238.589A2.943,2.943,0,0,0,13.462-3.9v.63A3.122,3.122,0,0,0,13.875-1.5a1.369,1.369,0,0,0,1.208.6,1.6,1.6,0,0,0,1.094-.327,1.706,1.706,0,0,0,.464-1.089ZM24.619,0h-1.23V-3.154H20.21V0H18.975V-7.109H20.21V-4.15h3.179V-7.109h1.23Zm7.1,0H30.483L27.314-5.044V0H26.079V-7.109h1.235l3.179,5.063V-7.109h1.226Zm7.134-3.369a4.362,4.362,0,0,1-.361,1.833A2.732,2.732,0,0,1,37.458-.325,2.841,2.841,0,0,1,35.913.1a2.847,2.847,0,0,1-1.541-.422,2.774,2.774,0,0,1-1.045-1.2,4.225,4.225,0,0,1-.374-1.8v-.4a4.324,4.324,0,0,1,.369-1.836,2.771,2.771,0,0,1,1.04-1.218A2.832,2.832,0,0,1,35.9-7.207a2.857,2.857,0,0,1,1.541.417,2.736,2.736,0,0,1,1.038,1.2,4.315,4.315,0,0,1,.371,1.824ZM37.617-3.74a3.108,3.108,0,0,0-.447-1.812,1.462,1.462,0,0,0-1.267-.63,1.457,1.457,0,0,0-1.252.627A3.048,3.048,0,0,0,34.19-3.78v.41a3.084,3.084,0,0,0,.457,1.812,1.47,1.47,0,0,0,1.267.64,1.453,1.453,0,0,0,1.262-.625,3.151,3.151,0,0,0,.442-1.826Zm3.7,2.754h3.228V0H40.083V-7.109h1.235Zm9.536-2.383a4.362,4.362,0,0,1-.361,1.833A2.732,2.732,0,0,1,49.46-.325,2.841,2.841,0,0,1,47.915.1a2.847,2.847,0,0,1-1.541-.422,2.774,2.774,0,0,1-1.045-1.2,4.225,4.225,0,0,1-.374-1.8v-.4a4.324,4.324,0,0,1,.369-1.836,2.771,2.771,0,0,1,1.04-1.218A2.832,2.832,0,0,1,47.9-7.2a2.857,2.857,0,0,1,1.541.417,2.736,2.736,0,0,1,1.038,1.2,4.315,4.315,0,0,1,.371,1.824ZM49.619-3.74a3.108,3.108,0,0,0-.447-1.812,1.462,1.462,0,0,0-1.267-.63,1.457,1.457,0,0,0-1.252.627,3.048,3.048,0,0,0-.461,1.775v.41a3.084,3.084,0,0,0,.457,1.812,1.47,1.47,0,0,0,1.267.64,1.453,1.453,0,0,0,1.262-.625,3.151,3.151,0,0,0,.442-1.826ZM57.534-.923a2.362,2.362,0,0,1-1.069.762A4.363,4.363,0,0,1,54.912.1,3.06,3.06,0,0,1,53.33-.308a2.7,2.7,0,0,1-1.062-1.16,4.057,4.057,0,0,1-.388-1.76v-.557A3.763,3.763,0,0,1,52.651-6.3,2.676,2.676,0,0,1,54.8-7.207a2.831,2.831,0,0,1,1.885.588,2.535,2.535,0,0,1,.84,1.692H56.318a1.362,1.362,0,0,0-.471-.96,1.362,1.362,0,0,0-1.018-.324,1.46,1.46,0,0,0-1.262.6A3.045,3.045,0,0,0,53.12-3.86v.546a2.891,2.891,0,0,0,.486,1.788,1.6,1.6,0,0,0,1.35.637,1.78,1.78,0,0,0,1.348-.43V-2.71H54.839v-.937h2.7ZM61.211-3.74l1.636-3.369h1.367L61.831-2.617V0h-1.24V-2.617L58.2-7.109h1.372Z" transform="translate(176 36)" fill="#434345"/>
    <path id="Path_6664" data-name="Path 6664" d="M2.026,0H.8V-7.109H2.03ZM9.185,0H7.949L4.78-5.044V0H3.545V-7.109H4.78L7.959-2.046V-7.109H9.185Zm7.1,0H15.049L11.88-5.044V0H10.645V-7.109H11.88l3.179,5.063V-7.109h1.226Zm7.134-3.369a4.362,4.362,0,0,1-.361,1.833A2.732,2.732,0,0,1,22.024-.325,2.841,2.841,0,0,1,20.479.1a2.847,2.847,0,0,1-1.541-.422,2.774,2.774,0,0,1-1.045-1.2,4.225,4.225,0,0,1-.374-1.8v-.4a4.324,4.324,0,0,1,.369-1.836,2.771,2.771,0,0,1,1.04-1.218A2.832,2.832,0,0,1,20.469-7.2a2.857,2.857,0,0,1,1.541.417,2.736,2.736,0,0,1,1.038,1.2,4.315,4.315,0,0,1,.371,1.824ZM22.183-3.74a3.108,3.108,0,0,0-.447-1.812,1.462,1.462,0,0,0-1.267-.63,1.457,1.457,0,0,0-1.252.627,3.048,3.048,0,0,0-.461,1.775v.41a3.084,3.084,0,0,0,.457,1.812,1.47,1.47,0,0,0,1.267.64,1.453,1.453,0,0,0,1.262-.625,3.151,3.151,0,0,0,.442-1.826Zm4.863,2.192L28.853-7.11H30.21L27.651,0h-1.2L23.906-7.109h1.353Zm7.578-.107H31.87L31.294,0H30.01L32.7-7.109h1.1L36.494,0H35.205Zm-2.407-1h2.061L33.247-5.6Zm9.634-3.462H39.634V0H38.408V-6.113h-2.2v-1h5.64ZM44.087,0h-1.23V-7.109h1.23Zm7.192-3.369a4.362,4.362,0,0,1-.361,1.833A2.732,2.732,0,0,1,49.885-.325,2.841,2.841,0,0,1,48.34.1,2.847,2.847,0,0,1,46.8-.325a2.774,2.774,0,0,1-1.045-1.2,4.225,4.225,0,0,1-.374-1.8v-.4a4.324,4.324,0,0,1,.369-1.836,2.771,2.771,0,0,1,1.04-1.218A2.832,2.832,0,0,1,48.331-7.2a2.857,2.857,0,0,1,1.541.417,2.736,2.736,0,0,1,1.038,1.2,4.315,4.315,0,0,1,.371,1.824ZM50.044-3.74A3.108,3.108,0,0,0,49.6-5.552a1.462,1.462,0,0,0-1.267-.63,1.457,1.457,0,0,0-1.252.627A3.048,3.048,0,0,0,46.62-3.78v.41a3.084,3.084,0,0,0,.457,1.812,1.47,1.47,0,0,0,1.267.64A1.453,1.453,0,0,0,49.6-1.543a3.151,3.151,0,0,0,.442-1.826ZM58.149,0H56.914L53.745-5.044V0H52.51V-7.109h1.235l3.179,5.063V-7.109H58.15Z" transform="translate(142 25)" fill="#434345"/>
    <rect id="Rectangle_4965" data-name="Rectangle 4965" width="1.5" height="18" transform="translate(136 18)" fill="#434345" opacity="0.68"/>
  </g>
</svg>
